<svg xmlns="http://www.w3.org/2000/svg" xmlns:xlink="http://www.w3.org/1999/xlink" width="1280" zoomAndPan="magnify" viewBox="0 0 960 540.000001" height="720" preserveAspectRatio="xMidYMid meet" version="1.0"><defs><clipPath id="25a1f0923e"><path d="M 0.886719 0 L 959.113281 0 L 959.113281 539 L 0.886719 539 Z M 0.886719 0 " clip-rule="nonzero"/></clipPath><clipPath id="969d2d4108"><path d="M 530.171875 244 L 959.113281 244 L 959.113281 539 L 530.171875 539 Z M 530.171875 244 " clip-rule="nonzero"/></clipPath><clipPath id="2c07a06e55"><path d="M 0.886719 0 L 923 0 L 923 539 L 0.886719 539 Z M 0.886719 0 " clip-rule="nonzero"/></clipPath><clipPath id="9f14f8d245"><path d="M 0.886719 0 L 479 0 L 479 316.414062 L 0.886719 316.414062 Z M 0.886719 0 " clip-rule="nonzero"/></clipPath><clipPath id="88f555963e"><path d="M 0.886719 0 L 270 0 L 270 126.699219 L 0.886719 126.699219 Z M 0.886719 0 " clip-rule="nonzero"/></clipPath><clipPath id="da68a82da5"><path d="M 700 0 L 867.648438 0 L 867.648438 46 L 700 46 Z M 700 0 " clip-rule="nonzero"/></clipPath><clipPath id="ea139798d7"><path d="M 78.5 457 L 183.308594 457 L 183.308594 539 L 78.5 539 Z M 78.5 457 " clip-rule="nonzero"/></clipPath><clipPath id="a13c65f851"><path d="M 202.996094 457 L 307.636719 457 L 307.636719 539 L 202.996094 539 Z M 202.996094 457 " clip-rule="nonzero"/></clipPath><clipPath id="ad62dbe30b"><path d="M 191.503906 80.773438 L 214.484375 80.773438 L 214.484375 103.757812 L 191.503906 103.757812 Z M 191.503906 80.773438 " clip-rule="nonzero"/></clipPath><clipPath id="78cfd8359a"><path d="M 202.996094 80.773438 C 196.648438 80.773438 191.503906 85.917969 191.503906 92.265625 C 191.503906 98.609375 196.648438 103.757812 202.996094 103.757812 C 209.339844 103.757812 214.484375 98.609375 214.484375 92.265625 C 214.484375 85.917969 209.339844 80.773438 202.996094 80.773438 Z M 202.996094 80.773438 " clip-rule="nonzero"/></clipPath><clipPath id="e44f19526c"><path d="M 732.769531 241.429688 L 783.824219 241.429688 L 783.824219 292.484375 L 732.769531 292.484375 Z M 732.769531 241.429688 " clip-rule="nonzero"/></clipPath><clipPath id="fcc888c513"><path d="M 758.296875 241.429688 C 744.199219 241.429688 732.769531 252.859375 732.769531 266.957031 C 732.769531 281.054688 744.199219 292.484375 758.296875 292.484375 C 772.394531 292.484375 783.824219 281.054688 783.824219 266.957031 C 783.824219 252.859375 772.394531 241.429688 758.296875 241.429688 Z M 758.296875 241.429688 " clip-rule="nonzero"/></clipPath><clipPath id="eea3155653"><path d="M 0.886719 225 L 54 225 L 54 368.714844 L 0.886719 368.714844 Z M 0.886719 225 " clip-rule="nonzero"/></clipPath><clipPath id="2c664d8101"><path d="M 0.886719 238 L 41 238 L 41 357 L 0.886719 357 Z M 0.886719 238 " clip-rule="nonzero"/></clipPath><clipPath id="6a9ad4fe45"><path d="M 0.886719 251 L 28 251 L 28 344 L 0.886719 344 Z M 0.886719 251 " clip-rule="nonzero"/></clipPath><clipPath id="16839b6e6c"><path d="M 0.886719 262 L 17 262 L 17 332 L 0.886719 332 Z M 0.886719 262 " clip-rule="nonzero"/></clipPath><clipPath id="df9e9bbea9"><path d="M 0.886719 272 L 7 272 L 7 322 L 0.886719 322 Z M 0.886719 272 " clip-rule="nonzero"/></clipPath><clipPath id="b235484d6a"><path d="M 544 100 L 567 100 L 567 124 L 544 124 Z M 544 100 " clip-rule="nonzero"/></clipPath><clipPath id="f5e4287143"><path d="M 558.625 92.265625 L 575.5625 109.203125 L 561.273438 123.496094 L 544.332031 106.558594 Z M 558.625 92.265625 " clip-rule="nonzero"/></clipPath><clipPath id="db68097408"><path d="M 558.625 92.265625 L 575.5625 109.203125 L 561.273438 123.496094 L 544.332031 106.558594 Z M 558.625 92.265625 " clip-rule="nonzero"/></clipPath><clipPath id="ef511578d1"><path d="M 546 102 L 566 102 L 566 122 L 546 122 Z M 546 102 " clip-rule="nonzero"/></clipPath><clipPath id="b74f53195e"><path d="M 558.625 92.265625 L 575.5625 109.203125 L 561.273438 123.496094 L 544.332031 106.558594 Z M 558.625 92.265625 " clip-rule="nonzero"/></clipPath><clipPath id="05ac0183e3"><path d="M 558.625 92.265625 L 575.5625 109.203125 L 561.273438 123.496094 L 544.332031 106.558594 Z M 558.625 92.265625 " clip-rule="nonzero"/></clipPath><clipPath id="0e30963fa0"><path d="M 439 415 L 461 415 L 461 440 L 439 440 Z M 439 415 " clip-rule="nonzero"/></clipPath><clipPath id="3f4ae29281"><path d="M 440.304688 440.417969 L 438.90625 416.503906 L 459.085938 415.324219 L 460.480469 439.242188 Z M 440.304688 440.417969 " clip-rule="nonzero"/></clipPath><clipPath id="7a7f994d38"><path d="M 440.304688 440.417969 L 438.90625 416.503906 L 459.085938 415.324219 L 460.480469 439.242188 Z M 440.304688 440.417969 " clip-rule="nonzero"/></clipPath><clipPath id="a4d30ad6a2"><path d="M 442 417 L 460 417 L 460 438 L 442 438 Z M 442 417 " clip-rule="nonzero"/></clipPath><clipPath id="4a73916012"><path d="M 440.304688 440.417969 L 438.90625 416.503906 L 459.085938 415.324219 L 460.480469 439.242188 Z M 440.304688 440.417969 " clip-rule="nonzero"/></clipPath><clipPath id="4e160b3b2d"><path d="M 440.304688 440.417969 L 438.90625 416.503906 L 459.085938 415.324219 L 460.480469 439.242188 Z M 440.304688 440.417969 " clip-rule="nonzero"/></clipPath></defs><g clip-path="url(#25a1f0923e)"><path fill="#ffffff" d="M 0.886719 0 L 959.113281 0 L 959.113281 539 L 0.886719 539 Z M 0.886719 0 " fill-opacity="1" fill-rule="nonzero"/></g><g clip-path="url(#969d2d4108)"><path fill="#000000" d="M 530.367188 589.085938 C 538.734375 553.804688 571.710938 454.996094 673.304688 468.820312 C 796.722656 485.792969 824 480.578125 839.519531 396.078125 C 854.308594 316.0625 912.382812 241.863281 974.820312 244.410156 L 974.820312 589.085938 Z M 530.367188 589.085938 " fill-opacity="1" fill-rule="nonzero"/></g><g clip-path="url(#2c07a06e55)"><path fill="#f9f9f9" d="M -155.078125 124.878906 C -155.078125 172.054688 -132.613281 214.175781 -97.792969 241.132812 C -87.121094 249.558594 -93.296875 266.40625 -106.777344 266.40625 L -205.0625 266.40625 C -286.5 266.96875 -352.210938 332.679688 -352.210938 414.117188 C -352.210938 495.550781 -286.5 561.261719 -205.0625 561.261719 L 339.15625 561.261719 C 420.59375 561.261719 486.304688 495.550781 486.304688 414.117188 C 486.304688 409.0625 486.304688 404.570312 485.742188 400.074219 C 479 332.117188 530.671875 272.585938 598.628906 272.585938 L 774.980469 272.585938 C 856.417969 272.585938 922.128906 206.875 922.128906 125.4375 C 922.6875 43.441406 856.976562 -22.269531 775.542969 -22.269531 L -7.929688 -22.269531 C -89.367188 -22.269531 -155.078125 43.441406 -155.078125 124.878906 Z M -155.078125 124.878906 " fill-opacity="1" fill-rule="nonzero"/></g><g clip-path="url(#9f14f8d245)"><path fill="#f2f2f2" d="M -224.277344 32.105469 C -224.277344 62.878906 -209.621094 90.355469 -186.910156 107.941406 C -179.949219 113.4375 -183.976562 124.429688 -192.769531 124.429688 L -256.882812 124.429688 C -310.003906 124.792969 -352.867188 167.65625 -352.867188 220.78125 C -352.867188 273.902344 -310.003906 316.765625 -256.882812 316.765625 L 98.117188 316.765625 C 151.242188 316.765625 194.105469 273.902344 194.105469 220.78125 C 194.105469 217.484375 194.105469 214.550781 193.738281 211.621094 C 189.34375 167.292969 223.046875 128.457031 267.375 128.457031 L 382.414062 128.457031 C 435.535156 128.457031 478.398438 85.59375 478.398438 32.472656 C 478.765625 -21.015625 435.902344 -63.878906 382.78125 -63.878906 L -128.289062 -63.878906 C -181.414062 -63.878906 -224.277344 -21.015625 -224.277344 32.105469 Z M -224.277344 32.105469 " fill-opacity="1" fill-rule="nonzero"/></g><g clip-path="url(#88f555963e)"><path fill="#545454" d="M -53.324219 -4.367188 C -53.324219 9.773438 -46.589844 22.402344 -36.152344 30.480469 C -32.953125 33.007812 -34.804688 38.058594 -38.84375 38.058594 L -68.304688 38.058594 C -92.71875 38.226562 -112.414062 57.921875 -112.414062 82.335938 C -112.414062 106.746094 -92.71875 126.441406 -68.304688 126.441406 L 94.828125 126.441406 C 119.238281 126.441406 138.933594 106.746094 138.933594 82.335938 C 138.933594 80.820312 138.933594 79.472656 138.765625 78.125 C 136.746094 57.753906 152.234375 39.910156 172.605469 39.910156 L 225.46875 39.910156 C 249.878906 39.910156 269.578125 20.210938 269.578125 -4.199219 C 269.746094 -28.777344 250.046875 -48.476562 225.636719 -48.476562 L -9.214844 -48.476562 C -33.625 -48.476562 -53.324219 -28.777344 -53.324219 -4.367188 Z M -53.324219 -4.367188 " fill-opacity="1" fill-rule="nonzero"/></g><g clip-path="url(#da68a82da5)"><path fill="#737373" d="M 703.59375 -44.042969 C 703.59375 -43.816406 703.550781 -43.59375 703.464844 -43.382812 C 703.375 -43.171875 703.25 -42.988281 703.089844 -42.824219 C 702.929688 -42.664062 702.742188 -42.539062 702.53125 -42.453125 C 702.320312 -42.363281 702.101562 -42.320312 701.871094 -42.320312 C 701.644531 -42.320312 701.421875 -42.367188 701.210938 -42.453125 C 701 -42.542969 700.816406 -42.664062 700.65625 -42.828125 C 700.492188 -42.988281 700.367188 -43.175781 700.28125 -43.386719 C 700.195312 -43.597656 700.152344 -43.816406 700.152344 -44.046875 C 700.152344 -44.273438 700.195312 -44.492188 700.285156 -44.703125 C 700.371094 -44.914062 700.496094 -45.101562 700.660156 -45.261719 C 700.820312 -45.425781 701.007812 -45.546875 701.21875 -45.636719 C 701.429688 -45.722656 701.648438 -45.765625 701.878906 -45.765625 C 702.105469 -45.765625 702.324219 -45.71875 702.535156 -45.632812 C 702.746094 -45.542969 702.929688 -45.421875 703.09375 -45.257812 C 703.253906 -45.097656 703.375 -44.910156 703.464844 -44.699219 C 703.550781 -44.488281 703.59375 -44.269531 703.59375 -44.042969 Z M 720.085938 -45.765625 C 719.855469 -45.765625 719.636719 -45.722656 719.425781 -45.636719 C 719.214844 -45.546875 719.027344 -45.425781 718.867188 -45.261719 C 718.703125 -45.101562 718.578125 -44.914062 718.492188 -44.703125 C 718.402344 -44.492188 718.359375 -44.273438 718.359375 -44.046875 C 718.359375 -43.816406 718.402344 -43.597656 718.488281 -43.386719 C 718.578125 -43.175781 718.699219 -42.988281 718.863281 -42.828125 C 719.023438 -42.664062 719.210938 -42.542969 719.421875 -42.453125 C 719.632812 -42.367188 719.851562 -42.320312 720.078125 -42.320312 C 720.308594 -42.320312 720.527344 -42.363281 720.738281 -42.453125 C 720.949219 -42.539062 721.136719 -42.664062 721.296875 -42.824219 C 721.460938 -42.988281 721.582031 -43.171875 721.671875 -43.382812 C 721.757812 -43.59375 721.800781 -43.816406 721.800781 -44.042969 C 721.800781 -44.269531 721.757812 -44.488281 721.671875 -44.699219 C 721.585938 -44.910156 721.460938 -45.097656 721.300781 -45.257812 C 721.140625 -45.421875 720.953125 -45.542969 720.742188 -45.632812 C 720.53125 -45.71875 720.3125 -45.765625 720.085938 -45.765625 Z M 738.289062 -45.765625 C 738.058594 -45.765625 737.839844 -45.71875 737.628906 -45.632812 C 737.417969 -45.546875 737.234375 -45.421875 737.070312 -45.261719 C 736.910156 -45.097656 736.785156 -44.914062 736.699219 -44.703125 C 736.609375 -44.492188 736.566406 -44.269531 736.566406 -44.042969 C 736.566406 -43.816406 736.609375 -43.59375 736.699219 -43.382812 C 736.785156 -43.171875 736.910156 -42.988281 737.070312 -42.824219 C 737.234375 -42.664062 737.417969 -42.539062 737.628906 -42.453125 C 737.839844 -42.367188 738.058594 -42.320312 738.289062 -42.320312 C 738.515625 -42.320312 738.738281 -42.367188 738.949219 -42.453125 C 739.160156 -42.539062 739.34375 -42.664062 739.503906 -42.824219 C 739.667969 -42.988281 739.792969 -43.171875 739.878906 -43.382812 C 739.964844 -43.59375 740.011719 -43.816406 740.011719 -44.042969 C 740.011719 -44.269531 739.964844 -44.492188 739.878906 -44.703125 C 739.792969 -44.914062 739.667969 -45.097656 739.503906 -45.261719 C 739.34375 -45.421875 739.160156 -45.546875 738.949219 -45.632812 C 738.738281 -45.71875 738.515625 -45.765625 738.289062 -45.765625 Z M 756.503906 -45.765625 C 756.277344 -45.765625 756.058594 -45.71875 755.847656 -45.632812 C 755.636719 -45.546875 755.449219 -45.421875 755.289062 -45.261719 C 755.125 -45.097656 755.003906 -44.914062 754.914062 -44.703125 C 754.828125 -44.492188 754.785156 -44.269531 754.785156 -44.042969 C 754.785156 -43.816406 754.828125 -43.59375 754.914062 -43.382812 C 755.003906 -43.171875 755.125 -42.988281 755.289062 -42.824219 C 755.449219 -42.664062 755.636719 -42.539062 755.847656 -42.453125 C 756.058594 -42.367188 756.277344 -42.320312 756.503906 -42.320312 C 756.734375 -42.320312 756.953125 -42.367188 757.164062 -42.453125 C 757.375 -42.539062 757.5625 -42.664062 757.722656 -42.824219 C 757.882812 -42.988281 758.007812 -43.171875 758.09375 -43.382812 C 758.183594 -43.59375 758.226562 -43.816406 758.226562 -44.042969 C 758.226562 -44.269531 758.183594 -44.492188 758.09375 -44.703125 C 758.007812 -44.914062 757.882812 -45.097656 757.722656 -45.261719 C 757.5625 -45.421875 757.375 -45.546875 757.164062 -45.632812 C 756.953125 -45.71875 756.734375 -45.765625 756.503906 -45.765625 Z M 774.714844 -45.765625 C 774.484375 -45.765625 774.265625 -45.71875 774.054688 -45.632812 C 773.84375 -45.546875 773.65625 -45.421875 773.496094 -45.261719 C 773.335938 -45.097656 773.210938 -44.914062 773.121094 -44.703125 C 773.035156 -44.492188 772.992188 -44.269531 772.992188 -44.042969 C 772.992188 -43.816406 773.035156 -43.59375 773.121094 -43.382812 C 773.210938 -43.171875 773.335938 -42.988281 773.496094 -42.824219 C 773.65625 -42.664062 773.84375 -42.539062 774.054688 -42.453125 C 774.265625 -42.367188 774.484375 -42.320312 774.714844 -42.320312 C 774.941406 -42.320312 775.160156 -42.367188 775.371094 -42.453125 C 775.582031 -42.539062 775.769531 -42.664062 775.929688 -42.824219 C 776.089844 -42.988281 776.214844 -43.171875 776.304688 -43.382812 C 776.390625 -43.59375 776.433594 -43.816406 776.433594 -44.042969 C 776.433594 -44.273438 776.390625 -44.492188 776.300781 -44.703125 C 776.214844 -44.914062 776.089844 -45.101562 775.925781 -45.261719 C 775.765625 -45.425781 775.578125 -45.550781 775.367188 -45.636719 C 775.152344 -45.722656 774.933594 -45.765625 774.703125 -45.765625 Z M 792.910156 -45.765625 C 792.683594 -45.765625 792.464844 -45.722656 792.253906 -45.636719 C 792.042969 -45.546875 791.855469 -45.425781 791.691406 -45.261719 C 791.53125 -45.101562 791.40625 -44.914062 791.320312 -44.703125 C 791.230469 -44.492188 791.1875 -44.273438 791.1875 -44.046875 C 791.1875 -43.816406 791.230469 -43.597656 791.316406 -43.386719 C 791.402344 -43.175781 791.527344 -42.988281 791.6875 -42.828125 C 791.851562 -42.664062 792.035156 -42.542969 792.246094 -42.453125 C 792.457031 -42.367188 792.675781 -42.320312 792.90625 -42.320312 C 793.132812 -42.320312 793.355469 -42.363281 793.566406 -42.453125 C 793.777344 -42.539062 793.960938 -42.664062 794.125 -42.824219 C 794.285156 -42.988281 794.410156 -43.171875 794.496094 -43.382812 C 794.585938 -43.59375 794.628906 -43.816406 794.628906 -44.042969 C 794.628906 -44.269531 794.585938 -44.488281 794.5 -44.699219 C 794.410156 -44.910156 794.285156 -45.097656 794.125 -45.257812 C 793.964844 -45.417969 793.78125 -45.542969 793.570312 -45.632812 C 793.359375 -45.71875 793.140625 -45.765625 792.910156 -45.765625 Z M 811.121094 -45.765625 C 810.890625 -45.761719 810.671875 -45.71875 810.464844 -45.628906 C 810.253906 -45.539062 810.066406 -45.414062 809.90625 -45.253906 C 809.746094 -45.089844 809.625 -44.902344 809.539062 -44.691406 C 809.453125 -44.480469 809.410156 -44.261719 809.410156 -44.035156 C 809.414062 -43.804688 809.457031 -43.585938 809.546875 -43.378906 C 809.632812 -43.167969 809.757812 -42.980469 809.921875 -42.820312 C 810.082031 -42.660156 810.269531 -42.539062 810.480469 -42.449219 C 810.691406 -42.363281 810.910156 -42.320312 811.136719 -42.320312 C 811.363281 -42.324219 811.585938 -42.367188 811.792969 -42.453125 C 812.003906 -42.542969 812.191406 -42.667969 812.351562 -42.828125 C 812.511719 -42.988281 812.636719 -43.175781 812.722656 -43.386719 C 812.808594 -43.597656 812.855469 -43.816406 812.855469 -44.042969 C 812.855469 -44.273438 812.808594 -44.492188 812.722656 -44.703125 C 812.632812 -44.917969 812.507812 -45.101562 812.34375 -45.265625 C 812.183594 -45.425781 811.996094 -45.550781 811.78125 -45.636719 C 811.570312 -45.722656 811.347656 -45.765625 811.121094 -45.765625 Z M 829.324219 -45.765625 C 829.09375 -45.765625 828.875 -45.71875 828.664062 -45.632812 C 828.453125 -45.546875 828.265625 -45.421875 828.105469 -45.261719 C 827.945312 -45.097656 827.820312 -44.914062 827.734375 -44.703125 C 827.644531 -44.492188 827.601562 -44.269531 827.601562 -44.042969 C 827.601562 -43.816406 827.644531 -43.59375 827.734375 -43.382812 C 827.820312 -43.171875 827.945312 -42.988281 828.105469 -42.824219 C 828.265625 -42.664062 828.453125 -42.539062 828.664062 -42.453125 C 828.875 -42.367188 829.09375 -42.320312 829.324219 -42.320312 C 829.550781 -42.320312 829.769531 -42.367188 829.980469 -42.453125 C 830.191406 -42.539062 830.378906 -42.664062 830.539062 -42.824219 C 830.703125 -42.988281 830.824219 -43.171875 830.914062 -43.382812 C 831 -43.59375 831.042969 -43.816406 831.042969 -44.042969 C 831.042969 -44.269531 831 -44.492188 830.914062 -44.703125 C 830.824219 -44.914062 830.703125 -45.097656 830.539062 -45.261719 C 830.378906 -45.421875 830.191406 -45.546875 829.980469 -45.632812 C 829.769531 -45.71875 829.550781 -45.765625 829.324219 -45.765625 Z M 847.53125 -45.765625 C 847.300781 -45.765625 847.082031 -45.71875 846.871094 -45.632812 C 846.660156 -45.546875 846.476562 -45.421875 846.3125 -45.261719 C 846.152344 -45.097656 846.027344 -44.914062 845.941406 -44.703125 C 845.851562 -44.492188 845.808594 -44.269531 845.808594 -44.042969 C 845.808594 -43.816406 845.851562 -43.59375 845.941406 -43.382812 C 846.027344 -43.171875 846.152344 -42.988281 846.3125 -42.824219 C 846.476562 -42.664062 846.660156 -42.539062 846.871094 -42.453125 C 847.082031 -42.367188 847.300781 -42.320312 847.53125 -42.320312 C 847.757812 -42.320312 847.976562 -42.367188 848.1875 -42.453125 C 848.398438 -42.539062 848.585938 -42.664062 848.746094 -42.824219 C 848.910156 -42.988281 849.035156 -43.171875 849.121094 -43.382812 C 849.207031 -43.59375 849.25 -43.816406 849.25 -44.042969 C 849.25 -44.269531 849.207031 -44.492188 849.121094 -44.703125 C 849.035156 -44.914062 848.910156 -45.097656 848.746094 -45.261719 C 848.585938 -45.421875 848.398438 -45.546875 848.1875 -45.632812 C 847.976562 -45.71875 847.757812 -45.765625 847.53125 -45.765625 Z M 865.738281 -42.324219 C 865.964844 -42.324219 866.1875 -42.371094 866.398438 -42.457031 C 866.609375 -42.542969 866.792969 -42.667969 866.957031 -42.832031 C 867.117188 -42.992188 867.242188 -43.179688 867.328125 -43.390625 C 867.417969 -43.601562 867.460938 -43.820312 867.460938 -44.050781 C 867.460938 -44.277344 867.414062 -44.496094 867.328125 -44.707031 C 867.242188 -44.917969 867.117188 -45.105469 866.953125 -45.265625 C 866.792969 -45.425781 866.605469 -45.550781 866.394531 -45.636719 C 866.183594 -45.726562 865.964844 -45.769531 865.734375 -45.769531 C 865.507812 -45.769531 865.289062 -45.722656 865.078125 -45.636719 C 864.867188 -45.546875 864.679688 -45.421875 864.519531 -45.261719 C 864.359375 -45.101562 864.234375 -44.914062 864.148438 -44.703125 C 864.058594 -44.492188 864.015625 -44.269531 864.015625 -44.042969 C 864.019531 -43.816406 864.0625 -43.597656 864.148438 -43.386719 C 864.238281 -43.175781 864.363281 -42.988281 864.523438 -42.828125 C 864.683594 -42.667969 864.871094 -42.542969 865.082031 -42.457031 C 865.292969 -42.371094 865.511719 -42.324219 865.738281 -42.324219 Z M 701.878906 -28.15625 C 701.648438 -28.15625 701.429688 -28.113281 701.21875 -28.027344 C 701.007812 -27.9375 700.820312 -27.816406 700.660156 -27.652344 C 700.496094 -27.492188 700.371094 -27.304688 700.285156 -27.097656 C 700.195312 -26.886719 700.152344 -26.664062 700.152344 -26.4375 C 700.152344 -26.207031 700.195312 -25.988281 700.28125 -25.777344 C 700.367188 -25.566406 700.492188 -25.378906 700.65625 -25.21875 C 700.816406 -25.058594 701 -24.933594 701.210938 -24.84375 C 701.421875 -24.757812 701.644531 -24.714844 701.871094 -24.710938 C 702.101562 -24.710938 702.320312 -24.757812 702.53125 -24.84375 C 702.742188 -24.929688 702.929688 -25.054688 703.089844 -25.214844 C 703.25 -25.378906 703.375 -25.5625 703.464844 -25.773438 C 703.550781 -25.984375 703.59375 -26.207031 703.59375 -26.433594 C 703.59375 -26.660156 703.550781 -26.882812 703.464844 -27.089844 C 703.375 -27.300781 703.253906 -27.488281 703.09375 -27.648438 C 702.929688 -27.8125 702.746094 -27.933594 702.535156 -28.023438 C 702.324219 -28.109375 702.105469 -28.15625 701.878906 -28.15625 Z M 720.085938 -28.15625 C 719.855469 -28.15625 719.636719 -28.113281 719.425781 -28.027344 C 719.214844 -27.9375 719.027344 -27.816406 718.867188 -27.652344 C 718.703125 -27.492188 718.578125 -27.304688 718.492188 -27.097656 C 718.402344 -26.886719 718.359375 -26.664062 718.359375 -26.4375 C 718.359375 -26.207031 718.402344 -25.988281 718.488281 -25.777344 C 718.578125 -25.566406 718.699219 -25.378906 718.863281 -25.21875 C 719.023438 -25.058594 719.210938 -24.933594 719.421875 -24.84375 C 719.632812 -24.757812 719.851562 -24.714844 720.078125 -24.710938 C 720.308594 -24.710938 720.527344 -24.757812 720.738281 -24.84375 C 720.949219 -24.929688 721.136719 -25.054688 721.296875 -25.214844 C 721.460938 -25.378906 721.582031 -25.5625 721.671875 -25.773438 C 721.757812 -25.984375 721.800781 -26.207031 721.800781 -26.433594 C 721.800781 -26.660156 721.757812 -26.882812 721.671875 -27.089844 C 721.585938 -27.300781 721.460938 -27.488281 721.300781 -27.648438 C 721.140625 -27.8125 720.953125 -27.933594 720.742188 -28.023438 C 720.53125 -28.109375 720.3125 -28.15625 720.085938 -28.15625 Z M 738.289062 -28.15625 C 738.058594 -28.15625 737.839844 -28.113281 737.628906 -28.023438 C 737.417969 -27.9375 737.234375 -27.8125 737.070312 -27.652344 C 736.910156 -27.488281 736.785156 -27.304688 736.699219 -27.09375 C 736.609375 -26.882812 736.566406 -26.664062 736.566406 -26.433594 C 736.566406 -26.207031 736.609375 -25.984375 736.699219 -25.773438 C 736.785156 -25.5625 736.910156 -25.378906 737.070312 -25.21875 C 737.234375 -25.054688 737.417969 -24.929688 737.628906 -24.84375 C 737.839844 -24.757812 738.058594 -24.710938 738.289062 -24.710938 C 738.515625 -24.710938 738.738281 -24.757812 738.949219 -24.84375 C 739.160156 -24.929688 739.34375 -25.054688 739.503906 -25.21875 C 739.667969 -25.378906 739.792969 -25.5625 739.878906 -25.773438 C 739.964844 -25.984375 740.011719 -26.207031 740.011719 -26.433594 C 740.011719 -26.664062 739.964844 -26.882812 739.878906 -27.09375 C 739.792969 -27.304688 739.667969 -27.488281 739.503906 -27.652344 C 739.34375 -27.8125 739.160156 -27.9375 738.949219 -28.023438 C 738.738281 -28.113281 738.515625 -28.15625 738.289062 -28.15625 Z M 756.503906 -28.15625 C 756.277344 -28.15625 756.058594 -28.113281 755.847656 -28.023438 C 755.636719 -27.9375 755.449219 -27.8125 755.289062 -27.652344 C 755.125 -27.488281 755.003906 -27.304688 754.914062 -27.09375 C 754.828125 -26.882812 754.785156 -26.664062 754.785156 -26.433594 C 754.785156 -26.207031 754.828125 -25.984375 754.914062 -25.773438 C 755.003906 -25.5625 755.125 -25.378906 755.289062 -25.21875 C 755.449219 -25.054688 755.636719 -24.929688 755.847656 -24.84375 C 756.058594 -24.757812 756.277344 -24.710938 756.503906 -24.710938 C 756.734375 -24.710938 756.953125 -24.757812 757.164062 -24.84375 C 757.375 -24.929688 757.5625 -25.054688 757.722656 -25.21875 C 757.882812 -25.378906 758.007812 -25.5625 758.09375 -25.773438 C 758.183594 -25.984375 758.226562 -26.207031 758.226562 -26.433594 C 758.226562 -26.664062 758.183594 -26.882812 758.09375 -27.09375 C 758.007812 -27.304688 757.882812 -27.488281 757.722656 -27.652344 C 757.5625 -27.8125 757.375 -27.9375 757.164062 -28.023438 C 756.953125 -28.113281 756.734375 -28.15625 756.503906 -28.15625 Z M 774.714844 -28.15625 C 774.484375 -28.15625 774.265625 -28.113281 774.054688 -28.023438 C 773.84375 -27.9375 773.65625 -27.8125 773.496094 -27.652344 C 773.335938 -27.488281 773.210938 -27.304688 773.121094 -27.09375 C 773.035156 -26.882812 772.992188 -26.664062 772.992188 -26.433594 C 772.992188 -26.207031 773.035156 -25.984375 773.121094 -25.773438 C 773.210938 -25.5625 773.335938 -25.378906 773.496094 -25.21875 C 773.65625 -25.054688 773.84375 -24.929688 774.054688 -24.84375 C 774.265625 -24.757812 774.484375 -24.710938 774.714844 -24.710938 C 774.941406 -24.710938 775.160156 -24.757812 775.371094 -24.84375 C 775.582031 -24.929688 775.769531 -25.054688 775.929688 -25.21875 C 776.089844 -25.378906 776.214844 -25.5625 776.304688 -25.773438 C 776.390625 -25.984375 776.433594 -26.207031 776.433594 -26.433594 C 776.433594 -26.664062 776.390625 -26.882812 776.300781 -27.09375 C 776.214844 -27.304688 776.089844 -27.492188 775.925781 -27.652344 C 775.765625 -27.816406 775.578125 -27.941406 775.367188 -28.027344 C 775.152344 -28.113281 774.933594 -28.15625 774.703125 -28.15625 Z M 792.921875 -28.15625 C 792.691406 -28.15625 792.472656 -28.113281 792.261719 -28.027344 C 792.050781 -27.9375 791.863281 -27.816406 791.703125 -27.652344 C 791.539062 -27.492188 791.414062 -27.304688 791.328125 -27.097656 C 791.238281 -26.886719 791.195312 -26.664062 791.195312 -26.4375 C 791.195312 -26.207031 791.238281 -25.988281 791.324219 -25.777344 C 791.410156 -25.566406 791.535156 -25.378906 791.699219 -25.21875 C 791.859375 -25.058594 792.046875 -24.933594 792.253906 -24.84375 C 792.464844 -24.757812 792.6875 -24.714844 792.914062 -24.710938 C 793.144531 -24.710938 793.363281 -24.757812 793.574219 -24.84375 C 793.785156 -24.929688 793.972656 -25.054688 794.132812 -25.214844 C 794.292969 -25.378906 794.417969 -25.5625 794.507812 -25.773438 C 794.59375 -25.984375 794.636719 -26.207031 794.636719 -26.433594 C 794.636719 -26.664062 794.59375 -26.882812 794.507812 -27.09375 C 794.417969 -27.304688 794.292969 -27.492188 794.132812 -27.652344 C 793.96875 -27.8125 793.785156 -27.9375 793.570312 -28.027344 C 793.359375 -28.113281 793.140625 -28.15625 792.910156 -28.15625 Z M 811.128906 -28.15625 C 810.898438 -28.15625 810.679688 -28.113281 810.46875 -28.027344 C 810.257812 -27.9375 810.070312 -27.816406 809.910156 -27.652344 C 809.746094 -27.492188 809.621094 -27.304688 809.535156 -27.097656 C 809.445312 -26.886719 809.402344 -26.664062 809.402344 -26.4375 C 809.402344 -26.207031 809.445312 -25.988281 809.53125 -25.777344 C 809.621094 -25.566406 809.742188 -25.378906 809.90625 -25.21875 C 810.066406 -25.058594 810.253906 -24.933594 810.464844 -24.84375 C 810.675781 -24.757812 810.894531 -24.714844 811.121094 -24.710938 C 811.351562 -24.710938 811.570312 -24.757812 811.78125 -24.84375 C 811.992188 -24.929688 812.179688 -25.054688 812.339844 -25.214844 C 812.503906 -25.378906 812.625 -25.5625 812.714844 -25.773438 C 812.800781 -25.984375 812.84375 -26.207031 812.84375 -26.433594 C 812.84375 -26.664062 812.800781 -26.882812 812.714844 -27.09375 C 812.625 -27.304688 812.5 -27.492188 812.339844 -27.652344 C 812.175781 -27.8125 811.992188 -27.9375 811.78125 -28.027344 C 811.566406 -28.113281 811.347656 -28.15625 811.121094 -28.15625 Z M 829.332031 -28.15625 C 829.101562 -28.15625 828.882812 -28.113281 828.671875 -28.023438 C 828.460938 -27.9375 828.277344 -27.8125 828.113281 -27.652344 C 827.953125 -27.488281 827.828125 -27.304688 827.742188 -27.09375 C 827.652344 -26.882812 827.609375 -26.664062 827.609375 -26.433594 C 827.609375 -26.207031 827.652344 -25.984375 827.742188 -25.773438 C 827.828125 -25.5625 827.953125 -25.378906 828.113281 -25.21875 C 828.277344 -25.054688 828.460938 -24.929688 828.671875 -24.84375 C 828.882812 -24.757812 829.101562 -24.710938 829.332031 -24.710938 C 829.558594 -24.710938 829.78125 -24.757812 829.992188 -24.84375 C 830.203125 -24.929688 830.386719 -25.054688 830.550781 -25.21875 C 830.710938 -25.378906 830.835938 -25.5625 830.921875 -25.773438 C 831.007812 -25.984375 831.054688 -26.207031 831.054688 -26.433594 C 831.054688 -26.664062 831.007812 -26.882812 830.921875 -27.09375 C 830.832031 -27.304688 830.707031 -27.492188 830.546875 -27.652344 C 830.382812 -27.816406 830.195312 -27.941406 829.984375 -28.027344 C 829.773438 -28.113281 829.550781 -28.15625 829.324219 -28.15625 Z M 847.539062 -28.15625 C 847.3125 -28.15625 847.089844 -28.113281 846.878906 -28.023438 C 846.667969 -27.9375 846.484375 -27.8125 846.324219 -27.652344 C 846.160156 -27.488281 846.035156 -27.304688 845.949219 -27.09375 C 845.863281 -26.882812 845.816406 -26.664062 845.816406 -26.433594 C 845.816406 -26.207031 845.863281 -25.984375 845.949219 -25.773438 C 846.035156 -25.5625 846.160156 -25.378906 846.324219 -25.21875 C 846.484375 -25.054688 846.667969 -24.929688 846.878906 -24.84375 C 847.089844 -24.757812 847.3125 -24.710938 847.539062 -24.710938 C 847.769531 -24.710938 847.988281 -24.757812 848.199219 -24.84375 C 848.410156 -24.929688 848.59375 -25.054688 848.757812 -25.21875 C 848.917969 -25.378906 849.042969 -25.5625 849.128906 -25.773438 C 849.21875 -25.984375 849.261719 -26.207031 849.261719 -26.433594 C 849.261719 -26.664062 849.214844 -26.882812 849.128906 -27.09375 C 849.039062 -27.304688 848.914062 -27.492188 848.753906 -27.652344 C 848.589844 -27.816406 848.402344 -27.941406 848.191406 -28.027344 C 847.980469 -28.113281 847.757812 -28.15625 847.53125 -28.15625 Z M 865.746094 -28.15625 C 865.519531 -28.160156 865.296875 -28.117188 865.085938 -28.035156 C 864.871094 -27.949219 864.683594 -27.828125 864.519531 -27.667969 C 864.355469 -27.507812 864.230469 -27.324219 864.140625 -27.113281 C 864.050781 -26.902344 864.003906 -26.683594 864 -26.453125 C 863.996094 -26.226562 864.039062 -26.003906 864.125 -25.792969 C 864.207031 -25.582031 864.332031 -25.394531 864.492188 -25.230469 C 864.652344 -25.066406 864.835938 -24.941406 865.046875 -24.851562 C 865.257812 -24.761719 865.476562 -24.714844 865.707031 -24.714844 C 865.933594 -24.710938 866.15625 -24.753906 866.367188 -24.839844 C 866.578125 -24.925781 866.765625 -25.046875 866.929688 -25.207031 C 867.09375 -25.371094 867.21875 -25.554688 867.308594 -25.765625 C 867.394531 -25.976562 867.441406 -26.195312 867.441406 -26.425781 C 867.441406 -26.652344 867.402344 -26.871094 867.316406 -27.082031 C 867.230469 -27.292969 867.105469 -27.480469 866.945312 -27.640625 C 866.789062 -27.804688 866.601562 -27.929688 866.394531 -28.019531 C 866.183594 -28.105469 865.964844 -28.152344 865.738281 -28.15625 Z M 701.878906 -10.523438 C 701.648438 -10.523438 701.429688 -10.480469 701.21875 -10.394531 C 701.007812 -10.308594 700.824219 -10.183594 700.660156 -10.023438 C 700.5 -9.863281 700.375 -9.679688 700.285156 -9.46875 C 700.199219 -9.257812 700.152344 -9.039062 700.152344 -8.8125 C 700.152344 -8.582031 700.191406 -8.363281 700.277344 -8.152344 C 700.367188 -7.941406 700.488281 -7.753906 700.648438 -7.59375 C 700.808594 -7.429688 700.992188 -7.304688 701.203125 -7.21875 C 701.414062 -7.128906 701.632812 -7.082031 701.859375 -7.082031 C 702.089844 -7.078125 702.308594 -7.121094 702.519531 -7.207031 C 702.730469 -7.292969 702.917969 -7.414062 703.078125 -7.574219 C 703.242188 -7.734375 703.367188 -7.917969 703.457031 -8.128906 C 703.546875 -8.339844 703.59375 -8.558594 703.59375 -8.785156 C 703.597656 -9.015625 703.554688 -9.234375 703.46875 -9.449219 C 703.382812 -9.660156 703.257812 -9.847656 703.097656 -10.011719 C 702.9375 -10.175781 702.75 -10.300781 702.539062 -10.390625 C 702.328125 -10.480469 702.105469 -10.523438 701.878906 -10.523438 Z M 720.085938 -10.523438 C 719.855469 -10.523438 719.636719 -10.480469 719.425781 -10.394531 C 719.214844 -10.308594 719.027344 -10.183594 718.867188 -10.023438 C 718.703125 -9.859375 718.578125 -9.675781 718.492188 -9.464844 C 718.402344 -9.253906 718.359375 -9.03125 718.359375 -8.804688 C 718.359375 -8.574219 718.402344 -8.355469 718.492188 -8.144531 C 718.578125 -7.933594 718.703125 -7.746094 718.863281 -7.585938 C 719.023438 -7.425781 719.210938 -7.300781 719.421875 -7.210938 C 719.632812 -7.125 719.855469 -7.082031 720.082031 -7.082031 C 720.3125 -7.082031 720.53125 -7.125 720.742188 -7.214844 C 720.953125 -7.300781 721.140625 -7.425781 721.300781 -7.589844 C 721.460938 -7.75 721.585938 -7.9375 721.671875 -8.148438 C 721.757812 -8.359375 721.804688 -8.578125 721.800781 -8.808594 C 721.800781 -9.035156 721.757812 -9.253906 721.671875 -9.464844 C 721.582031 -9.671875 721.457031 -9.859375 721.296875 -10.019531 C 721.136719 -10.179688 720.953125 -10.304688 720.742188 -10.390625 C 720.53125 -10.480469 720.3125 -10.523438 720.085938 -10.523438 Z M 738.289062 -10.523438 C 738.0625 -10.523438 737.839844 -10.480469 737.632812 -10.394531 C 737.421875 -10.308594 737.234375 -10.183594 737.074219 -10.023438 C 736.914062 -9.859375 736.789062 -9.675781 736.699219 -9.464844 C 736.613281 -9.253906 736.566406 -9.035156 736.566406 -8.808594 C 736.566406 -8.582031 736.609375 -8.363281 736.695312 -8.152344 C 736.78125 -7.941406 736.90625 -7.753906 737.066406 -7.59375 C 737.226562 -7.429688 737.410156 -7.304688 737.621094 -7.214844 C 737.832031 -7.128906 738.050781 -7.082031 738.277344 -7.082031 C 738.503906 -7.082031 738.722656 -7.121094 738.933594 -7.207031 C 739.144531 -7.292969 739.332031 -7.414062 739.496094 -7.574219 C 739.65625 -7.734375 739.785156 -7.917969 739.871094 -8.128906 C 739.960938 -8.339844 740.007812 -8.558594 740.011719 -8.785156 C 740.011719 -9.015625 739.96875 -9.238281 739.882812 -9.449219 C 739.796875 -9.664062 739.671875 -9.851562 739.511719 -10.015625 C 739.351562 -10.175781 739.164062 -10.304688 738.953125 -10.390625 C 738.738281 -10.480469 738.519531 -10.523438 738.289062 -10.523438 Z M 756.496094 -10.523438 C 756.269531 -10.523438 756.046875 -10.480469 755.835938 -10.394531 C 755.625 -10.304688 755.441406 -10.179688 755.277344 -10.019531 C 755.117188 -9.859375 754.992188 -9.671875 754.90625 -9.460938 C 754.820312 -9.25 754.773438 -9.03125 754.773438 -8.800781 C 754.773438 -8.574219 754.820312 -8.351562 754.90625 -8.140625 C 754.996094 -7.929688 755.117188 -7.746094 755.28125 -7.585938 C 755.441406 -7.421875 755.628906 -7.296875 755.839844 -7.210938 C 756.050781 -7.125 756.269531 -7.082031 756.5 -7.082031 C 756.726562 -7.082031 756.949219 -7.125 757.15625 -7.214844 C 757.367188 -7.300781 757.554688 -7.425781 757.714844 -7.589844 C 757.878906 -7.75 758 -7.9375 758.089844 -8.148438 C 758.175781 -8.359375 758.21875 -8.578125 758.21875 -8.808594 C 758.21875 -9.035156 758.171875 -9.253906 758.085938 -9.460938 C 758 -9.671875 757.875 -9.859375 757.714844 -10.019531 C 757.554688 -10.179688 757.371094 -10.304688 757.160156 -10.390625 C 756.949219 -10.480469 756.730469 -10.523438 756.503906 -10.523438 Z M 774.703125 -10.523438 C 774.476562 -10.523438 774.257812 -10.480469 774.046875 -10.394531 C 773.835938 -10.304688 773.648438 -10.179688 773.488281 -10.019531 C 773.324219 -9.859375 773.199219 -9.671875 773.113281 -9.460938 C 773.027344 -9.25 772.984375 -9.03125 772.984375 -8.800781 C 772.984375 -8.574219 773.027344 -8.351562 773.113281 -8.140625 C 773.203125 -7.929688 773.328125 -7.746094 773.488281 -7.585938 C 773.648438 -7.421875 773.835938 -7.296875 774.046875 -7.210938 C 774.257812 -7.125 774.480469 -7.082031 774.707031 -7.082031 C 774.933594 -7.082031 775.15625 -7.125 775.367188 -7.214844 C 775.578125 -7.300781 775.761719 -7.425781 775.925781 -7.589844 C 776.085938 -7.75 776.210938 -7.9375 776.296875 -8.148438 C 776.382812 -8.359375 776.425781 -8.578125 776.425781 -8.808594 C 776.425781 -9.035156 776.378906 -9.253906 776.292969 -9.464844 C 776.207031 -9.675781 776.082031 -9.859375 775.917969 -10.023438 C 775.757812 -10.183594 775.574219 -10.304688 775.363281 -10.394531 C 775.152344 -10.480469 774.933594 -10.523438 774.703125 -10.523438 Z M 792.910156 -10.523438 C 792.683594 -10.523438 792.464844 -10.480469 792.253906 -10.394531 C 792.039062 -10.308594 791.855469 -10.183594 791.691406 -10.023438 C 791.53125 -9.859375 791.40625 -9.675781 791.316406 -9.464844 C 791.230469 -9.253906 791.1875 -9.03125 791.1875 -8.804688 C 791.1875 -8.574219 791.230469 -8.355469 791.316406 -8.144531 C 791.402344 -7.933594 791.527344 -7.746094 791.691406 -7.585938 C 791.851562 -7.425781 792.039062 -7.300781 792.25 -7.210938 C 792.460938 -7.125 792.679688 -7.082031 792.910156 -7.082031 C 793.136719 -7.082031 793.355469 -7.125 793.566406 -7.214844 C 793.777344 -7.300781 793.964844 -7.425781 794.125 -7.589844 C 794.289062 -7.75 794.414062 -7.9375 794.5 -8.148438 C 794.585938 -8.359375 794.628906 -8.578125 794.628906 -8.808594 C 794.628906 -9.035156 794.585938 -9.253906 794.496094 -9.464844 C 794.410156 -9.671875 794.285156 -9.859375 794.125 -10.019531 C 793.964844 -10.179688 793.777344 -10.304688 793.566406 -10.390625 C 793.359375 -10.480469 793.140625 -10.523438 792.910156 -10.523438 Z M 811.121094 -10.523438 C 810.890625 -10.523438 810.671875 -10.476562 810.464844 -10.390625 C 810.253906 -10.300781 810.070312 -10.175781 809.910156 -10.015625 C 809.75 -9.851562 809.625 -9.667969 809.539062 -9.457031 C 809.453125 -9.246094 809.410156 -9.027344 809.410156 -8.800781 C 809.410156 -8.574219 809.457031 -8.355469 809.542969 -8.144531 C 809.628906 -7.933594 809.753906 -7.75 809.914062 -7.585938 C 810.074219 -7.425781 810.261719 -7.300781 810.46875 -7.214844 C 810.679688 -7.128906 810.898438 -7.082031 811.125 -7.082031 C 811.351562 -7.082031 811.570312 -7.125 811.78125 -7.207031 C 811.992188 -7.292969 812.179688 -7.417969 812.339844 -7.578125 C 812.503906 -7.738281 812.628906 -7.921875 812.71875 -8.128906 C 812.804688 -8.339844 812.851562 -8.558594 812.855469 -8.785156 C 812.855469 -9.015625 812.8125 -9.238281 812.726562 -9.453125 C 812.640625 -9.667969 812.515625 -9.855469 812.351562 -10.019531 C 812.1875 -10.183594 812 -10.308594 811.785156 -10.394531 C 811.574219 -10.484375 811.351562 -10.527344 811.121094 -10.523438 Z M 829.324219 -10.523438 C 829.09375 -10.523438 828.875 -10.480469 828.664062 -10.394531 C 828.453125 -10.304688 828.265625 -10.179688 828.105469 -10.019531 C 827.945312 -9.859375 827.820312 -9.671875 827.730469 -9.460938 C 827.644531 -9.25 827.601562 -9.03125 827.601562 -8.800781 C 827.601562 -8.574219 827.644531 -8.351562 827.734375 -8.140625 C 827.820312 -7.929688 827.945312 -7.746094 828.105469 -7.585938 C 828.269531 -7.421875 828.457031 -7.296875 828.667969 -7.210938 C 828.878906 -7.125 829.097656 -7.082031 829.324219 -7.082031 C 829.554688 -7.082031 829.773438 -7.125 829.984375 -7.214844 C 830.195312 -7.300781 830.382812 -7.425781 830.542969 -7.589844 C 830.703125 -7.75 830.828125 -7.9375 830.914062 -8.148438 C 831 -8.359375 831.042969 -8.578125 831.042969 -8.808594 C 831.042969 -9.035156 831 -9.253906 830.910156 -9.464844 C 830.824219 -9.675781 830.699219 -9.859375 830.539062 -10.023438 C 830.378906 -10.183594 830.191406 -10.304688 829.980469 -10.394531 C 829.769531 -10.480469 829.550781 -10.523438 829.324219 -10.523438 Z M 847.53125 -10.523438 C 847.300781 -10.523438 847.082031 -10.480469 846.871094 -10.394531 C 846.660156 -10.304688 846.472656 -10.179688 846.3125 -10.019531 C 846.152344 -9.859375 846.027344 -9.671875 845.941406 -9.460938 C 845.851562 -9.25 845.808594 -9.03125 845.808594 -8.800781 C 845.808594 -8.574219 845.851562 -8.351562 845.941406 -8.140625 C 846.027344 -7.933594 846.152344 -7.746094 846.316406 -7.585938 C 846.476562 -7.421875 846.664062 -7.296875 846.875 -7.210938 C 847.085938 -7.125 847.304688 -7.082031 847.535156 -7.082031 C 847.761719 -7.082031 847.980469 -7.125 848.191406 -7.214844 C 848.402344 -7.300781 848.589844 -7.425781 848.75 -7.589844 C 848.910156 -7.75 849.035156 -7.9375 849.121094 -8.148438 C 849.210938 -8.359375 849.253906 -8.578125 849.25 -8.808594 C 849.25 -9.035156 849.207031 -9.253906 849.121094 -9.464844 C 849.03125 -9.675781 848.90625 -9.859375 848.746094 -10.023438 C 848.585938 -10.183594 848.398438 -10.304688 848.1875 -10.394531 C 847.976562 -10.480469 847.757812 -10.523438 847.53125 -10.523438 Z M 865.738281 -10.523438 C 865.511719 -10.527344 865.289062 -10.484375 865.078125 -10.398438 C 864.867188 -10.316406 864.679688 -10.191406 864.515625 -10.03125 C 864.351562 -9.871094 864.226562 -9.6875 864.136719 -9.476562 C 864.046875 -9.269531 864.003906 -9.050781 864 -8.820312 C 863.996094 -8.59375 864.039062 -8.371094 864.125 -8.160156 C 864.210938 -7.949219 864.332031 -7.761719 864.492188 -7.597656 C 864.652344 -7.433594 864.835938 -7.308594 865.046875 -7.21875 C 865.257812 -7.128906 865.476562 -7.085938 865.703125 -7.082031 C 865.929688 -7.078125 866.152344 -7.121094 866.363281 -7.207031 C 866.574219 -7.292969 866.761719 -7.414062 866.925781 -7.574219 C 867.089844 -7.734375 867.214844 -7.917969 867.304688 -8.128906 C 867.394531 -8.339844 867.441406 -8.558594 867.441406 -8.785156 C 867.445312 -9.011719 867.402344 -9.234375 867.316406 -9.445312 C 867.234375 -9.65625 867.109375 -9.84375 866.949219 -10.007812 C 866.789062 -10.171875 866.605469 -10.296875 866.394531 -10.386719 C 866.1875 -10.476562 865.964844 -10.523438 865.738281 -10.523438 Z M 701.878906 7.085938 C 701.648438 7.085938 701.429688 7.128906 701.21875 7.214844 C 701.007812 7.300781 700.824219 7.421875 700.660156 7.585938 C 700.5 7.746094 700.375 7.929688 700.285156 8.140625 C 700.199219 8.351562 700.152344 8.570312 700.152344 8.796875 C 700.152344 9.023438 700.191406 9.246094 700.277344 9.457031 C 700.367188 9.667969 700.488281 9.851562 700.648438 10.015625 C 700.808594 10.175781 700.992188 10.304688 701.203125 10.390625 C 701.414062 10.480469 701.632812 10.527344 701.859375 10.527344 C 702.089844 10.527344 702.308594 10.488281 702.519531 10.402344 C 702.730469 10.316406 702.917969 10.195312 703.078125 10.035156 C 703.242188 9.875 703.367188 9.691406 703.457031 9.480469 C 703.546875 9.269531 703.59375 9.050781 703.59375 8.824219 C 703.59375 8.59375 703.554688 8.375 703.464844 8.164062 C 703.378906 7.953125 703.257812 7.765625 703.09375 7.601562 C 702.933594 7.441406 702.746094 7.316406 702.535156 7.226562 C 702.324219 7.136719 702.105469 7.09375 701.878906 7.09375 Z M 720.085938 7.085938 C 719.855469 7.085938 719.636719 7.128906 719.425781 7.214844 C 719.214844 7.300781 719.027344 7.425781 718.867188 7.585938 C 718.703125 7.746094 718.578125 7.933594 718.492188 8.144531 C 718.402344 8.355469 718.359375 8.574219 718.359375 8.804688 C 718.359375 9.03125 718.402344 9.25 718.488281 9.460938 C 718.578125 9.671875 718.699219 9.859375 718.863281 10.023438 C 719.023438 10.183594 719.210938 10.308594 719.421875 10.394531 C 719.632812 10.484375 719.851562 10.527344 720.078125 10.527344 C 720.308594 10.527344 720.527344 10.484375 720.738281 10.398438 C 720.949219 10.308594 721.136719 10.183594 721.296875 10.023438 C 721.460938 9.863281 721.582031 9.675781 721.671875 9.464844 C 721.757812 9.253906 721.800781 9.035156 721.800781 8.804688 C 721.800781 8.578125 721.757812 8.359375 721.667969 8.152344 C 721.582031 7.941406 721.457031 7.757812 721.296875 7.597656 C 721.136719 7.4375 720.949219 7.3125 720.742188 7.226562 C 720.53125 7.136719 720.3125 7.09375 720.085938 7.09375 Z M 738.289062 7.085938 C 738.0625 7.085938 737.84375 7.128906 737.632812 7.214844 C 737.421875 7.300781 737.234375 7.425781 737.074219 7.585938 C 736.914062 7.746094 736.789062 7.933594 736.699219 8.144531 C 736.613281 8.355469 736.566406 8.574219 736.566406 8.800781 C 736.566406 9.027344 736.609375 9.246094 736.695312 9.457031 C 736.78125 9.667969 736.90625 9.855469 737.066406 10.015625 C 737.226562 10.179688 737.410156 10.304688 737.621094 10.390625 C 737.832031 10.480469 738.050781 10.527344 738.277344 10.527344 C 738.503906 10.527344 738.722656 10.488281 738.933594 10.402344 C 739.144531 10.316406 739.332031 10.191406 739.496094 10.035156 C 739.65625 9.875 739.785156 9.6875 739.871094 9.480469 C 739.960938 9.269531 740.007812 9.050781 740.011719 8.824219 C 740.011719 8.59375 739.96875 8.375 739.882812 8.164062 C 739.792969 7.949219 739.671875 7.761719 739.507812 7.601562 C 739.347656 7.4375 739.160156 7.3125 738.949219 7.226562 C 738.738281 7.136719 738.519531 7.09375 738.289062 7.09375 Z M 756.496094 7.085938 C 756.269531 7.085938 756.046875 7.128906 755.835938 7.214844 C 755.625 7.304688 755.441406 7.425781 755.277344 7.589844 C 755.117188 7.75 754.992188 7.9375 754.90625 8.148438 C 754.820312 8.359375 754.773438 8.578125 754.773438 8.804688 C 754.773438 9.035156 754.820312 9.253906 754.90625 9.464844 C 754.992188 9.675781 755.117188 9.863281 755.277344 10.023438 C 755.441406 10.183594 755.625 10.308594 755.835938 10.394531 C 756.046875 10.484375 756.269531 10.527344 756.496094 10.527344 C 756.726562 10.527344 756.945312 10.484375 757.15625 10.394531 C 757.367188 10.308594 757.550781 10.183594 757.714844 10.023438 C 757.875 9.863281 758 9.675781 758.085938 9.464844 C 758.175781 9.253906 758.21875 9.035156 758.21875 8.804688 C 758.214844 8.578125 758.171875 8.363281 758.085938 8.152344 C 757.996094 7.941406 757.875 7.757812 757.714844 7.597656 C 757.554688 7.4375 757.367188 7.3125 757.160156 7.226562 C 756.949219 7.140625 756.730469 7.09375 756.503906 7.09375 Z M 774.703125 7.085938 C 774.476562 7.085938 774.257812 7.128906 774.046875 7.214844 C 773.835938 7.304688 773.648438 7.425781 773.488281 7.589844 C 773.324219 7.75 773.203125 7.9375 773.113281 8.148438 C 773.027344 8.359375 772.984375 8.578125 772.984375 8.804688 C 772.984375 9.035156 773.027344 9.253906 773.113281 9.464844 C 773.203125 9.675781 773.324219 9.863281 773.488281 10.023438 C 773.648438 10.183594 773.835938 10.308594 774.046875 10.394531 C 774.257812 10.484375 774.476562 10.527344 774.703125 10.527344 C 774.933594 10.527344 775.152344 10.484375 775.363281 10.394531 C 775.574219 10.308594 775.761719 10.183594 775.921875 10.023438 C 776.082031 9.863281 776.207031 9.675781 776.292969 9.464844 C 776.382812 9.253906 776.425781 9.035156 776.425781 8.804688 C 776.425781 8.578125 776.378906 8.359375 776.292969 8.148438 C 776.203125 7.941406 776.078125 7.753906 775.917969 7.59375 C 775.757812 7.433594 775.570312 7.3125 775.359375 7.222656 C 775.152344 7.136719 774.929688 7.09375 774.703125 7.09375 Z M 792.910156 7.085938 C 792.683594 7.085938 792.464844 7.128906 792.253906 7.214844 C 792.042969 7.300781 791.855469 7.425781 791.691406 7.585938 C 791.53125 7.746094 791.40625 7.933594 791.320312 8.144531 C 791.230469 8.355469 791.1875 8.574219 791.1875 8.804688 C 791.1875 9.03125 791.230469 9.25 791.316406 9.460938 C 791.402344 9.671875 791.527344 9.859375 791.6875 10.023438 C 791.851562 10.183594 792.035156 10.308594 792.246094 10.394531 C 792.457031 10.484375 792.675781 10.527344 792.90625 10.527344 C 793.132812 10.527344 793.355469 10.484375 793.566406 10.398438 C 793.777344 10.308594 793.960938 10.183594 794.125 10.023438 C 794.285156 9.863281 794.410156 9.675781 794.496094 9.464844 C 794.585938 9.253906 794.628906 9.035156 794.628906 8.804688 C 794.628906 8.578125 794.582031 8.359375 794.496094 8.152344 C 794.40625 7.941406 794.285156 7.757812 794.121094 7.597656 C 793.960938 7.4375 793.777344 7.3125 793.566406 7.226562 C 793.355469 7.136719 793.140625 7.09375 792.910156 7.09375 Z M 811.121094 7.085938 C 810.890625 7.085938 810.671875 7.132812 810.464844 7.21875 C 810.253906 7.308594 810.070312 7.433594 809.910156 7.59375 C 809.75 7.757812 809.625 7.941406 809.539062 8.152344 C 809.453125 8.363281 809.410156 8.582031 809.410156 8.808594 C 809.410156 9.035156 809.457031 9.253906 809.542969 9.464844 C 809.628906 9.675781 809.753906 9.859375 809.914062 10.023438 C 810.074219 10.183594 810.261719 10.308594 810.46875 10.394531 C 810.679688 10.480469 810.898438 10.527344 811.125 10.527344 C 811.351562 10.527344 811.570312 10.484375 811.78125 10.398438 C 811.992188 10.3125 812.179688 10.191406 812.339844 10.03125 C 812.503906 9.871094 812.628906 9.6875 812.71875 9.480469 C 812.804688 9.269531 812.851562 9.050781 812.855469 8.824219 C 812.855469 8.59375 812.8125 8.371094 812.722656 8.160156 C 812.636719 7.945312 812.511719 7.757812 812.347656 7.597656 C 812.183594 7.433594 811.996094 7.308594 811.785156 7.222656 C 811.570312 7.132812 811.351562 7.09375 811.121094 7.09375 Z M 829.324219 7.085938 C 829.09375 7.085938 828.875 7.128906 828.664062 7.214844 C 828.453125 7.304688 828.265625 7.425781 828.105469 7.589844 C 827.945312 7.75 827.820312 7.9375 827.734375 8.148438 C 827.644531 8.359375 827.601562 8.578125 827.601562 8.804688 C 827.601562 9.035156 827.644531 9.253906 827.734375 9.464844 C 827.820312 9.675781 827.945312 9.863281 828.105469 10.023438 C 828.265625 10.183594 828.453125 10.308594 828.664062 10.394531 C 828.875 10.484375 829.09375 10.527344 829.324219 10.527344 C 829.550781 10.527344 829.769531 10.484375 829.980469 10.394531 C 830.191406 10.308594 830.378906 10.183594 830.539062 10.023438 C 830.703125 9.863281 830.824219 9.675781 830.914062 9.464844 C 831 9.253906 831.042969 9.035156 831.042969 8.804688 C 831.042969 8.578125 831 8.359375 830.910156 8.148438 C 830.824219 7.941406 830.699219 7.753906 830.535156 7.59375 C 830.375 7.433594 830.191406 7.3125 829.980469 7.222656 C 829.769531 7.136719 829.550781 7.09375 829.324219 7.09375 Z M 847.53125 7.085938 C 847.300781 7.085938 847.082031 7.128906 846.871094 7.214844 C 846.660156 7.304688 846.476562 7.425781 846.3125 7.589844 C 846.152344 7.75 846.027344 7.9375 845.941406 8.148438 C 845.851562 8.359375 845.808594 8.578125 845.808594 8.804688 C 845.808594 9.035156 845.851562 9.253906 845.941406 9.464844 C 846.027344 9.675781 846.152344 9.863281 846.3125 10.023438 C 846.476562 10.183594 846.660156 10.308594 846.871094 10.394531 C 847.082031 10.484375 847.300781 10.527344 847.53125 10.527344 C 847.757812 10.527344 847.976562 10.484375 848.1875 10.394531 C 848.398438 10.308594 848.585938 10.183594 848.746094 10.023438 C 848.910156 9.863281 849.035156 9.675781 849.121094 9.464844 C 849.207031 9.253906 849.25 9.035156 849.25 8.804688 C 849.25 8.578125 849.207031 8.359375 849.117188 8.148438 C 849.03125 7.941406 848.90625 7.753906 848.746094 7.59375 C 848.582031 7.433594 848.398438 7.3125 848.1875 7.222656 C 847.976562 7.136719 847.757812 7.09375 847.53125 7.09375 Z M 865.738281 7.085938 C 865.511719 7.082031 865.289062 7.125 865.078125 7.210938 C 864.867188 7.292969 864.679688 7.417969 864.515625 7.578125 C 864.351562 7.734375 864.226562 7.921875 864.136719 8.132812 C 864.046875 8.339844 864.003906 8.558594 864 8.789062 C 863.996094 9.015625 864.039062 9.238281 864.125 9.449219 C 864.210938 9.660156 864.332031 9.847656 864.492188 10.011719 C 864.652344 10.171875 864.835938 10.300781 865.046875 10.390625 C 865.257812 10.480469 865.476562 10.523438 865.703125 10.527344 C 865.929688 10.53125 866.152344 10.488281 866.363281 10.402344 C 866.574219 10.316406 866.761719 10.195312 866.925781 10.035156 C 867.089844 9.875 867.214844 9.691406 867.304688 9.480469 C 867.394531 9.269531 867.441406 9.050781 867.441406 8.824219 C 867.441406 8.597656 867.402344 8.378906 867.316406 8.167969 C 867.230469 7.957031 867.105469 7.769531 866.945312 7.605469 C 866.789062 7.445312 866.601562 7.320312 866.394531 7.230469 C 866.183594 7.140625 865.964844 7.097656 865.738281 7.09375 Z M 701.878906 24.714844 C 701.648438 24.714844 701.429688 24.757812 701.21875 24.84375 C 701.007812 24.933594 700.820312 25.054688 700.65625 25.21875 C 700.496094 25.378906 700.371094 25.566406 700.285156 25.777344 C 700.195312 25.988281 700.152344 26.207031 700.152344 26.4375 C 700.152344 26.664062 700.195312 26.882812 700.28125 27.09375 C 700.371094 27.304688 700.496094 27.492188 700.65625 27.652344 C 700.816406 27.816406 701.003906 27.941406 701.214844 28.027344 C 701.425781 28.113281 701.644531 28.160156 701.875 28.160156 C 702.101562 28.160156 702.324219 28.113281 702.535156 28.027344 C 702.746094 27.9375 702.929688 27.8125 703.09375 27.652344 C 703.253906 27.492188 703.378906 27.304688 703.464844 27.09375 C 703.550781 26.882812 703.59375 26.660156 703.59375 26.433594 C 703.59375 26.207031 703.550781 25.988281 703.460938 25.777344 C 703.375 25.566406 703.25 25.378906 703.089844 25.21875 C 702.929688 25.058594 702.742188 24.933594 702.535156 24.847656 C 702.324219 24.761719 702.105469 24.714844 701.878906 24.714844 Z M 720.085938 24.714844 C 719.855469 24.714844 719.636719 24.757812 719.425781 24.84375 C 719.214844 24.933594 719.027344 25.054688 718.867188 25.21875 C 718.703125 25.378906 718.578125 25.566406 718.492188 25.777344 C 718.402344 25.988281 718.359375 26.207031 718.359375 26.4375 C 718.359375 26.664062 718.402344 26.882812 718.492188 27.09375 C 718.578125 27.304688 718.703125 27.492188 718.863281 27.652344 C 719.023438 27.816406 719.210938 27.941406 719.421875 28.027344 C 719.632812 28.113281 719.855469 28.160156 720.082031 28.160156 C 720.3125 28.160156 720.53125 28.113281 720.742188 28.027344 C 720.953125 27.9375 721.140625 27.8125 721.300781 27.652344 C 721.460938 27.492188 721.585938 27.304688 721.671875 27.09375 C 721.757812 26.882812 721.804688 26.660156 721.800781 26.433594 C 721.800781 26.207031 721.757812 25.988281 721.671875 25.777344 C 721.582031 25.566406 721.457031 25.378906 721.296875 25.21875 C 721.136719 25.058594 720.953125 24.933594 720.742188 24.847656 C 720.53125 24.761719 720.3125 24.714844 720.085938 24.714844 Z M 738.289062 24.714844 C 738.058594 24.714844 737.839844 24.757812 737.628906 24.847656 C 737.417969 24.933594 737.230469 25.058594 737.070312 25.21875 C 736.910156 25.382812 736.785156 25.570312 736.699219 25.78125 C 736.609375 25.992188 736.566406 26.210938 736.566406 26.4375 C 736.566406 26.667969 736.613281 26.886719 736.699219 27.097656 C 736.785156 27.308594 736.910156 27.496094 737.074219 27.65625 C 737.234375 27.816406 737.421875 27.941406 737.632812 28.027344 C 737.84375 28.117188 738.0625 28.160156 738.292969 28.160156 C 738.519531 28.15625 738.738281 28.113281 738.949219 28.027344 C 739.160156 27.9375 739.347656 27.8125 739.507812 27.652344 C 739.667969 27.488281 739.792969 27.304688 739.878906 27.09375 C 739.96875 26.882812 740.011719 26.660156 740.011719 26.433594 C 740.007812 26.203125 739.964844 25.984375 739.878906 25.773438 C 739.789062 25.566406 739.664062 25.378906 739.503906 25.21875 C 739.34375 25.058594 739.15625 24.933594 738.945312 24.847656 C 738.734375 24.757812 738.515625 24.714844 738.289062 24.714844 Z M 756.496094 24.714844 C 756.269531 24.714844 756.046875 24.757812 755.835938 24.847656 C 755.625 24.933594 755.441406 25.058594 755.277344 25.21875 C 755.117188 25.382812 754.992188 25.570312 754.90625 25.78125 C 754.820312 25.992188 754.773438 26.210938 754.773438 26.4375 C 754.773438 26.667969 754.820312 26.886719 754.90625 27.097656 C 754.996094 27.308594 755.117188 27.496094 755.28125 27.65625 C 755.441406 27.816406 755.628906 27.941406 755.839844 28.027344 C 756.050781 28.117188 756.269531 28.160156 756.5 28.160156 C 756.726562 28.15625 756.949219 28.113281 757.15625 28.027344 C 757.367188 27.9375 757.554688 27.8125 757.714844 27.652344 C 757.878906 27.488281 758 27.304688 758.089844 27.09375 C 758.175781 26.882812 758.21875 26.660156 758.21875 26.433594 C 758.21875 26.207031 758.171875 25.988281 758.085938 25.777344 C 758 25.566406 757.875 25.382812 757.714844 25.222656 C 757.554688 25.0625 757.371094 24.9375 757.160156 24.847656 C 756.949219 24.761719 756.730469 24.71875 756.503906 24.714844 Z M 774.703125 24.714844 C 774.476562 24.714844 774.257812 24.757812 774.046875 24.847656 C 773.835938 24.933594 773.648438 25.058594 773.488281 25.21875 C 773.324219 25.382812 773.199219 25.570312 773.113281 25.78125 C 773.027344 25.992188 772.984375 26.210938 772.984375 26.4375 C 772.984375 26.667969 773.027344 26.886719 773.113281 27.097656 C 773.203125 27.308594 773.328125 27.496094 773.488281 27.65625 C 773.648438 27.816406 773.835938 27.941406 774.046875 28.027344 C 774.257812 28.117188 774.480469 28.160156 774.707031 28.160156 C 774.933594 28.15625 775.15625 28.113281 775.367188 28.027344 C 775.578125 27.9375 775.761719 27.8125 775.925781 27.652344 C 776.085938 27.488281 776.210938 27.304688 776.296875 27.09375 C 776.382812 26.882812 776.425781 26.660156 776.425781 26.433594 C 776.425781 26.203125 776.378906 25.984375 776.292969 25.773438 C 776.207031 25.566406 776.082031 25.378906 775.917969 25.21875 C 775.757812 25.058594 775.574219 24.933594 775.363281 24.847656 C 775.152344 24.757812 774.933594 24.714844 774.703125 24.714844 Z M 792.910156 24.714844 C 792.683594 24.714844 792.464844 24.757812 792.253906 24.84375 C 792.039062 24.933594 791.855469 25.054688 791.691406 25.21875 C 791.53125 25.378906 791.40625 25.566406 791.316406 25.777344 C 791.230469 25.988281 791.1875 26.207031 791.1875 26.4375 C 791.1875 26.664062 791.230469 26.882812 791.316406 27.09375 C 791.402344 27.304688 791.527344 27.492188 791.691406 27.652344 C 791.851562 27.816406 792.039062 27.941406 792.25 28.027344 C 792.460938 28.113281 792.679688 28.160156 792.910156 28.160156 C 793.136719 28.160156 793.355469 28.113281 793.566406 28.027344 C 793.777344 27.9375 793.964844 27.8125 794.125 27.652344 C 794.289062 27.492188 794.410156 27.304688 794.5 27.09375 C 794.585938 26.882812 794.628906 26.660156 794.628906 26.433594 C 794.628906 26.207031 794.585938 25.988281 794.496094 25.777344 C 794.410156 25.566406 794.285156 25.378906 794.125 25.21875 C 793.964844 25.058594 793.777344 24.933594 793.566406 24.847656 C 793.359375 24.761719 793.140625 24.714844 792.910156 24.714844 Z M 811.121094 24.714844 C 810.890625 24.71875 810.671875 24.761719 810.460938 24.851562 C 810.253906 24.941406 810.066406 25.066406 809.90625 25.226562 C 809.746094 25.390625 809.625 25.578125 809.539062 25.789062 C 809.453125 26 809.410156 26.21875 809.410156 26.449219 C 809.414062 26.675781 809.457031 26.894531 809.546875 27.105469 C 809.632812 27.316406 809.761719 27.5 809.921875 27.660156 C 810.082031 27.820312 810.269531 27.945312 810.480469 28.03125 C 810.691406 28.117188 810.910156 28.160156 811.140625 28.160156 C 811.367188 28.15625 811.585938 28.113281 811.796875 28.023438 C 812.007812 27.9375 812.195312 27.8125 812.355469 27.648438 C 812.515625 27.488281 812.636719 27.300781 812.726562 27.089844 C 812.8125 26.878906 812.855469 26.660156 812.855469 26.433594 C 812.851562 26.203125 812.808594 25.984375 812.71875 25.773438 C 812.632812 25.5625 812.507812 25.375 812.34375 25.214844 C 812.179688 25.050781 811.992188 24.929688 811.78125 24.84375 C 811.570312 24.757812 811.347656 24.714844 811.121094 24.714844 Z M 829.324219 24.714844 C 829.09375 24.714844 828.875 24.757812 828.664062 24.847656 C 828.453125 24.933594 828.265625 25.058594 828.105469 25.21875 C 827.945312 25.382812 827.820312 25.570312 827.730469 25.78125 C 827.644531 25.992188 827.601562 26.210938 827.601562 26.4375 C 827.601562 26.667969 827.644531 26.886719 827.734375 27.097656 C 827.820312 27.308594 827.945312 27.496094 828.105469 27.65625 C 828.269531 27.816406 828.457031 27.941406 828.667969 28.027344 C 828.878906 28.117188 829.097656 28.160156 829.324219 28.160156 C 829.554688 28.15625 829.773438 28.113281 829.984375 28.027344 C 830.195312 27.9375 830.382812 27.8125 830.542969 27.652344 C 830.703125 27.488281 830.828125 27.304688 830.914062 27.09375 C 831 26.882812 831.042969 26.660156 831.042969 26.433594 C 831.042969 26.203125 831 25.984375 830.910156 25.773438 C 830.824219 25.566406 830.699219 25.378906 830.539062 25.21875 C 830.378906 25.058594 830.191406 24.933594 829.980469 24.847656 C 829.769531 24.757812 829.550781 24.714844 829.324219 24.714844 Z M 847.53125 24.714844 C 847.300781 24.714844 847.082031 24.757812 846.871094 24.847656 C 846.660156 24.933594 846.472656 25.058594 846.3125 25.21875 C 846.152344 25.382812 846.027344 25.570312 845.941406 25.78125 C 845.851562 25.992188 845.808594 26.210938 845.808594 26.4375 C 845.808594 26.667969 845.851562 26.886719 845.941406 27.097656 C 846.027344 27.308594 846.152344 27.496094 846.316406 27.65625 C 846.476562 27.816406 846.664062 27.941406 846.875 28.027344 C 847.085938 28.117188 847.304688 28.160156 847.535156 28.160156 C 847.761719 28.15625 847.980469 28.113281 848.191406 28.027344 C 848.402344 27.9375 848.589844 27.8125 848.75 27.652344 C 848.910156 27.488281 849.035156 27.304688 849.121094 27.09375 C 849.210938 26.882812 849.253906 26.660156 849.25 26.433594 C 849.25 26.203125 849.207031 25.984375 849.121094 25.773438 C 849.03125 25.566406 848.90625 25.378906 848.746094 25.21875 C 848.585938 25.058594 848.398438 24.933594 848.1875 24.847656 C 847.976562 24.757812 847.757812 24.714844 847.53125 24.714844 Z M 865.738281 24.714844 C 865.507812 24.714844 865.289062 24.753906 865.078125 24.839844 C 864.863281 24.925781 864.675781 25.050781 864.511719 25.210938 C 864.351562 25.371094 864.222656 25.554688 864.136719 25.765625 C 864.046875 25.976562 864 26.199219 864 26.425781 C 864 26.65625 864.039062 26.875 864.128906 27.089844 C 864.214844 27.300781 864.335938 27.488281 864.5 27.648438 C 864.660156 27.8125 864.847656 27.9375 865.058594 28.027344 C 865.269531 28.113281 865.488281 28.15625 865.71875 28.160156 C 865.945312 28.160156 866.167969 28.113281 866.378906 28.027344 C 866.589844 27.941406 866.777344 27.816406 866.9375 27.652344 C 867.101562 27.492188 867.226562 27.304688 867.3125 27.09375 C 867.398438 26.882812 867.441406 26.660156 867.441406 26.433594 C 867.441406 26.207031 867.398438 25.988281 867.3125 25.78125 C 867.226562 25.570312 867.101562 25.386719 866.941406 25.226562 C 866.78125 25.0625 866.597656 24.941406 866.390625 24.851562 C 866.183594 24.761719 865.964844 24.71875 865.738281 24.714844 Z M 701.878906 42.324219 C 701.648438 42.324219 701.429688 42.367188 701.21875 42.453125 C 701.007812 42.542969 700.820312 42.664062 700.65625 42.828125 C 700.496094 42.988281 700.371094 43.175781 700.285156 43.386719 C 700.195312 43.597656 700.152344 43.816406 700.152344 44.042969 C 700.152344 44.273438 700.195312 44.492188 700.28125 44.703125 C 700.371094 44.914062 700.496094 45.101562 700.65625 45.261719 C 700.816406 45.425781 701.003906 45.550781 701.214844 45.636719 C 701.425781 45.722656 701.644531 45.769531 701.875 45.765625 C 702.101562 45.765625 702.324219 45.722656 702.535156 45.636719 C 702.746094 45.546875 702.929688 45.421875 703.09375 45.261719 C 703.253906 45.097656 703.378906 44.914062 703.464844 44.703125 C 703.550781 44.488281 703.59375 44.269531 703.59375 44.042969 C 703.59375 43.816406 703.546875 43.597656 703.460938 43.386719 C 703.371094 43.179688 703.246094 42.996094 703.085938 42.835938 C 702.925781 42.675781 702.742188 42.550781 702.53125 42.464844 C 702.324219 42.378906 702.105469 42.335938 701.878906 42.332031 Z M 720.085938 42.324219 C 719.855469 42.324219 719.636719 42.367188 719.425781 42.453125 C 719.214844 42.542969 719.027344 42.664062 718.867188 42.828125 C 718.703125 42.988281 718.578125 43.171875 718.492188 43.382812 C 718.402344 43.59375 718.359375 43.816406 718.359375 44.042969 C 718.359375 44.273438 718.402344 44.492188 718.488281 44.703125 C 718.578125 44.914062 718.699219 45.101562 718.863281 45.261719 C 719.023438 45.421875 719.210938 45.546875 719.421875 45.636719 C 719.632812 45.722656 719.851562 45.765625 720.078125 45.765625 C 720.308594 45.769531 720.527344 45.722656 720.738281 45.636719 C 720.949219 45.550781 721.136719 45.425781 721.296875 45.265625 C 721.460938 45.101562 721.582031 44.917969 721.671875 44.707031 C 721.757812 44.496094 721.800781 44.273438 721.800781 44.046875 C 721.800781 43.820312 721.757812 43.601562 721.667969 43.390625 C 721.582031 43.179688 721.457031 42.996094 721.296875 42.835938 C 721.136719 42.675781 720.949219 42.550781 720.742188 42.464844 C 720.53125 42.378906 720.3125 42.335938 720.085938 42.332031 Z M 738.289062 42.324219 C 738.058594 42.324219 737.839844 42.367188 737.628906 42.457031 C 737.417969 42.542969 737.234375 42.667969 737.070312 42.828125 C 736.910156 42.992188 736.785156 43.175781 736.699219 43.386719 C 736.609375 43.597656 736.566406 43.820312 736.566406 44.046875 C 736.566406 44.277344 736.613281 44.496094 736.699219 44.707031 C 736.785156 44.917969 736.910156 45.105469 737.074219 45.265625 C 737.234375 45.425781 737.421875 45.550781 737.632812 45.636719 C 737.84375 45.722656 738.0625 45.769531 738.292969 45.765625 C 738.519531 45.765625 738.738281 45.722656 738.949219 45.636719 C 739.160156 45.546875 739.347656 45.421875 739.507812 45.261719 C 739.667969 45.097656 739.792969 44.914062 739.878906 44.699219 C 739.96875 44.488281 740.011719 44.269531 740.011719 44.042969 C 740.007812 43.816406 739.964844 43.597656 739.875 43.386719 C 739.785156 43.179688 739.664062 42.992188 739.5 42.832031 C 739.339844 42.671875 739.15625 42.550781 738.945312 42.464844 C 738.734375 42.375 738.515625 42.332031 738.289062 42.332031 Z M 756.496094 42.324219 C 756.269531 42.324219 756.046875 42.367188 755.835938 42.457031 C 755.625 42.542969 755.441406 42.667969 755.277344 42.828125 C 755.117188 42.992188 754.992188 43.175781 754.90625 43.386719 C 754.820312 43.597656 754.773438 43.816406 754.773438 44.046875 C 754.773438 44.273438 754.820312 44.492188 754.90625 44.703125 C 754.992188 44.914062 755.117188 45.101562 755.277344 45.261719 C 755.441406 45.425781 755.625 45.550781 755.835938 45.636719 C 756.046875 45.722656 756.269531 45.765625 756.496094 45.765625 C 756.726562 45.765625 756.945312 45.722656 757.15625 45.636719 C 757.367188 45.550781 757.550781 45.425781 757.714844 45.261719 C 757.875 45.101562 758 44.914062 758.085938 44.703125 C 758.175781 44.492188 758.21875 44.273438 758.21875 44.046875 C 758.214844 43.820312 758.171875 43.601562 758.085938 43.390625 C 757.996094 43.183594 757.875 43 757.714844 42.835938 C 757.554688 42.675781 757.367188 42.554688 757.160156 42.464844 C 756.949219 42.378906 756.730469 42.335938 756.503906 42.332031 Z M 774.703125 42.324219 C 774.476562 42.324219 774.257812 42.367188 774.046875 42.457031 C 773.835938 42.542969 773.648438 42.667969 773.488281 42.828125 C 773.324219 42.992188 773.203125 43.175781 773.113281 43.386719 C 773.027344 43.597656 772.984375 43.816406 772.984375 44.046875 C 772.984375 44.273438 773.027344 44.492188 773.113281 44.703125 C 773.203125 44.914062 773.324219 45.101562 773.488281 45.261719 C 773.648438 45.425781 773.835938 45.550781 774.046875 45.636719 C 774.257812 45.722656 774.476562 45.765625 774.703125 45.765625 C 774.933594 45.765625 775.152344 45.722656 775.363281 45.636719 C 775.574219 45.550781 775.761719 45.425781 775.921875 45.261719 C 776.082031 45.101562 776.207031 44.914062 776.292969 44.703125 C 776.382812 44.492188 776.425781 44.273438 776.425781 44.046875 C 776.425781 43.820312 776.378906 43.601562 776.292969 43.390625 C 776.203125 43.179688 776.078125 42.996094 775.917969 42.835938 C 775.757812 42.675781 775.570312 42.550781 775.359375 42.464844 C 775.152344 42.378906 774.929688 42.332031 774.703125 42.332031 Z M 792.910156 42.324219 C 792.683594 42.324219 792.464844 42.367188 792.253906 42.453125 C 792.042969 42.542969 791.855469 42.664062 791.691406 42.828125 C 791.53125 42.988281 791.40625 43.171875 791.320312 43.382812 C 791.230469 43.59375 791.1875 43.816406 791.1875 44.042969 C 791.1875 44.273438 791.230469 44.492188 791.316406 44.703125 C 791.402344 44.914062 791.527344 45.101562 791.6875 45.261719 C 791.851562 45.421875 792.035156 45.546875 792.246094 45.636719 C 792.457031 45.722656 792.675781 45.765625 792.90625 45.765625 C 793.132812 45.769531 793.355469 45.722656 793.566406 45.636719 C 793.777344 45.550781 793.960938 45.425781 794.125 45.265625 C 794.285156 45.101562 794.410156 44.917969 794.496094 44.707031 C 794.585938 44.496094 794.628906 44.273438 794.628906 44.046875 C 794.628906 43.820312 794.582031 43.601562 794.496094 43.390625 C 794.40625 43.179688 794.285156 42.996094 794.121094 42.835938 C 793.960938 42.675781 793.777344 42.550781 793.566406 42.464844 C 793.355469 42.378906 793.140625 42.335938 792.910156 42.332031 Z M 811.121094 42.324219 C 810.890625 42.328125 810.671875 42.371094 810.460938 42.460938 C 810.253906 42.550781 810.066406 42.675781 809.90625 42.835938 C 809.746094 43 809.625 43.1875 809.539062 43.398438 C 809.453125 43.609375 809.410156 43.828125 809.410156 44.054688 C 809.414062 44.285156 809.457031 44.503906 809.546875 44.714844 C 809.632812 44.921875 809.761719 45.109375 809.921875 45.269531 C 810.082031 45.429688 810.269531 45.554688 810.480469 45.640625 C 810.691406 45.726562 810.910156 45.769531 811.140625 45.765625 C 811.367188 45.765625 811.585938 45.722656 811.796875 45.632812 C 812.007812 45.546875 812.195312 45.421875 812.355469 45.257812 C 812.515625 45.097656 812.636719 44.910156 812.726562 44.699219 C 812.8125 44.488281 812.855469 44.269531 812.855469 44.042969 C 812.851562 43.8125 812.808594 43.59375 812.71875 43.382812 C 812.628906 43.171875 812.503906 42.988281 812.339844 42.828125 C 812.179688 42.667969 811.992188 42.546875 811.78125 42.460938 C 811.566406 42.375 811.347656 42.332031 811.121094 42.332031 Z M 829.324219 42.324219 C 829.09375 42.324219 828.875 42.367188 828.664062 42.457031 C 828.453125 42.542969 828.265625 42.667969 828.105469 42.828125 C 827.945312 42.992188 827.820312 43.175781 827.734375 43.386719 C 827.644531 43.597656 827.601562 43.816406 827.601562 44.046875 C 827.601562 44.273438 827.644531 44.492188 827.734375 44.703125 C 827.820312 44.914062 827.945312 45.101562 828.105469 45.261719 C 828.265625 45.425781 828.453125 45.550781 828.664062 45.636719 C 828.875 45.722656 829.09375 45.765625 829.324219 45.765625 C 829.550781 45.765625 829.769531 45.722656 829.980469 45.636719 C 830.191406 45.550781 830.378906 45.425781 830.539062 45.261719 C 830.703125 45.101562 830.824219 44.914062 830.914062 44.703125 C 831 44.492188 831.042969 44.273438 831.042969 44.046875 C 831.042969 43.820312 831 43.601562 830.910156 43.390625 C 830.824219 43.179688 830.699219 42.996094 830.535156 42.835938 C 830.375 42.675781 830.191406 42.550781 829.980469 42.464844 C 829.769531 42.378906 829.550781 42.332031 829.324219 42.332031 Z M 847.53125 42.324219 C 847.300781 42.324219 847.082031 42.367188 846.871094 42.457031 C 846.660156 42.542969 846.476562 42.667969 846.3125 42.828125 C 846.152344 42.992188 846.027344 43.175781 845.941406 43.386719 C 845.851562 43.597656 845.808594 43.816406 845.808594 44.046875 C 845.808594 44.273438 845.851562 44.492188 845.941406 44.703125 C 846.027344 44.914062 846.152344 45.101562 846.3125 45.261719 C 846.476562 45.425781 846.660156 45.550781 846.871094 45.636719 C 847.082031 45.722656 847.300781 45.765625 847.53125 45.765625 C 847.757812 45.765625 847.976562 45.722656 848.1875 45.636719 C 848.398438 45.550781 848.585938 45.425781 848.746094 45.261719 C 848.910156 45.101562 849.035156 44.914062 849.121094 44.703125 C 849.207031 44.492188 849.25 44.273438 849.25 44.046875 C 849.25 43.820312 849.207031 43.601562 849.117188 43.390625 C 849.03125 43.179688 848.90625 42.996094 848.746094 42.835938 C 848.582031 42.675781 848.398438 42.550781 848.1875 42.464844 C 847.976562 42.378906 847.757812 42.332031 847.53125 42.332031 Z M 865.738281 42.324219 C 865.507812 42.324219 865.289062 42.363281 865.078125 42.449219 C 864.863281 42.535156 864.675781 42.660156 864.511719 42.820312 C 864.351562 42.980469 864.222656 43.164062 864.136719 43.375 C 864.046875 43.585938 864 43.808594 864 44.035156 C 864 44.265625 864.039062 44.484375 864.128906 44.695312 C 864.214844 44.910156 864.335938 45.097656 864.5 45.257812 C 864.660156 45.421875 864.847656 45.546875 865.058594 45.632812 C 865.269531 45.722656 865.488281 45.765625 865.71875 45.765625 C 865.945312 45.769531 866.167969 45.722656 866.378906 45.636719 C 866.589844 45.550781 866.777344 45.425781 866.9375 45.261719 C 867.101562 45.101562 867.226562 44.914062 867.3125 44.703125 C 867.398438 44.492188 867.441406 44.269531 867.441406 44.042969 C 867.441406 43.816406 867.394531 43.597656 867.308594 43.390625 C 867.222656 43.183594 867.097656 43 866.941406 42.839844 C 866.78125 42.679688 866.597656 42.554688 866.386719 42.46875 C 866.179688 42.382812 865.964844 42.335938 865.738281 42.332031 Z M 865.738281 42.324219 " fill-opacity="1" fill-rule="nonzero"/></g><g clip-path="url(#ea139798d7)"><path fill="#000000" d="M 109.953125 561.671875 C 109.953125 521.195312 142.828125 488.316406 183.308594 488.316406 L 183.308594 457.03125 C 125.507812 457.03125 78.664062 503.871094 78.664062 561.671875 Z M 109.953125 561.671875 " fill-opacity="1" fill-rule="nonzero"/></g><g clip-path="url(#a13c65f851)"><path fill="#545454" d="M 276.351562 561.671875 C 276.351562 521.195312 243.472656 488.316406 202.996094 488.316406 L 202.996094 457.03125 C 260.796875 457.03125 307.636719 503.871094 307.636719 561.671875 Z M 276.351562 561.671875 " fill-opacity="1" fill-rule="nonzero"/></g><g clip-path="url(#ad62dbe30b)"><g clip-path="url(#78cfd8359a)"><path fill="#545454" d="M 191.503906 80.773438 L 214.484375 80.773438 L 214.484375 103.757812 L 191.503906 103.757812 Z M 191.503906 80.773438 " fill-opacity="1" fill-rule="nonzero"/></g></g><g clip-path="url(#e44f19526c)"><g clip-path="url(#fcc888c513)"><path fill="#545454" d="M 732.769531 241.429688 L 783.824219 241.429688 L 783.824219 292.484375 L 732.769531 292.484375 Z M 732.769531 241.429688 " fill-opacity="1" fill-rule="nonzero"/></g></g><g clip-path="url(#eea3155653)"><path fill="#000000" d="M -18.210938 368.957031 C -20.261719 368.957031 -22.304688 368.867188 -24.347656 368.691406 C -26.390625 368.511719 -28.417969 368.25 -30.4375 367.898438 C -32.457031 367.550781 -34.457031 367.113281 -36.441406 366.589844 C -38.421875 366.070312 -40.378906 365.464844 -42.308594 364.773438 C -44.238281 364.085938 -46.132812 363.3125 -47.996094 362.460938 C -49.859375 361.609375 -51.683594 360.679688 -53.46875 359.671875 C -55.253906 358.664062 -56.992188 357.578125 -58.683594 356.421875 C -60.371094 355.265625 -62.011719 354.039062 -63.597656 352.738281 C -65.183594 351.441406 -66.710938 350.078125 -68.179688 348.648438 C -69.648438 347.222656 -71.054688 345.734375 -72.398438 344.183594 C -73.738281 342.632812 -75.011719 341.03125 -76.214844 339.371094 C -77.417969 337.714844 -78.550781 336.007812 -79.609375 334.253906 C -80.667969 332.496094 -81.648438 330.699219 -82.550781 328.863281 C -83.457031 327.023438 -84.277344 325.148438 -85.023438 323.238281 C -85.765625 321.328125 -86.425781 319.390625 -87.003906 317.425781 C -87.582031 315.457031 -88.070312 313.46875 -88.480469 311.460938 C -88.886719 309.453125 -89.207031 307.429688 -89.441406 305.394531 C -89.671875 303.359375 -89.820312 301.316406 -89.878906 299.269531 C -89.9375 297.21875 -89.90625 295.171875 -89.789062 293.128906 C -89.671875 291.082031 -89.46875 289.042969 -89.179688 287.015625 C -88.886719 284.988281 -88.507812 282.976562 -88.046875 280.980469 C -87.582031 278.984375 -87.03125 277.011719 -86.398438 275.0625 C -85.765625 273.113281 -85.050781 271.195312 -84.253906 269.304688 C -83.457031 267.417969 -82.582031 265.566406 -81.625 263.753906 C -80.667969 261.941406 -79.636719 260.175781 -78.53125 258.449219 C -77.421875 256.726562 -76.242188 255.050781 -74.992188 253.429688 C -73.742188 251.804688 -72.421875 250.238281 -71.039062 248.730469 C -69.652344 247.21875 -68.207031 245.769531 -66.695312 244.382812 C -65.1875 242.996094 -63.621094 241.679688 -62 240.425781 C -60.375 239.175781 -58.703125 237.992188 -56.980469 236.886719 C -55.257812 235.777344 -53.488281 234.742188 -51.675781 233.785156 C -49.867188 232.828125 -48.015625 231.953125 -46.128906 231.152344 C -45.046875 230.703125 -43.957031 230.28125 -42.855469 229.886719 C -41.757812 229.488281 -40.644531 229.121094 -39.527344 228.78125 C -38.410156 228.4375 -37.28125 228.125 -36.148438 227.839844 C -35.011719 227.550781 -33.875 227.292969 -32.726562 227.0625 C -31.578125 226.832031 -30.425781 226.628906 -29.269531 226.457031 C -28.113281 226.28125 -26.953125 226.136719 -25.789062 226.019531 C -24.625 225.902344 -23.460938 225.8125 -22.292969 225.753906 C -21.125 225.691406 -19.953125 225.660156 -18.785156 225.65625 C -17.613281 225.652344 -16.445312 225.679688 -15.277344 225.734375 C -14.109375 225.789062 -12.941406 225.871094 -11.777344 225.980469 C -10.613281 226.09375 -9.453125 226.230469 -8.292969 226.398438 C -7.136719 226.566406 -5.984375 226.761719 -4.835938 226.988281 C -3.6875 227.210938 -2.546875 227.464844 -1.410156 227.746094 C -0.273438 228.023438 0.855469 228.332031 1.976562 228.667969 C 3.09375 229.003906 4.207031 229.367188 5.308594 229.753906 C 6.414062 230.144531 7.507812 230.5625 8.589844 231.003906 C 9.671875 231.449219 10.742188 231.917969 11.800781 232.414062 C 12.863281 232.910156 13.910156 233.429688 14.941406 233.976562 C 15.976562 234.523438 16.996094 235.09375 18.003906 235.691406 C 19.007812 236.289062 20 236.910156 20.976562 237.554688 C 21.953125 238.199219 22.910156 238.867188 23.855469 239.5625 C 24.796875 240.253906 25.722656 240.96875 26.632812 241.703125 C 27.539062 242.441406 28.429688 243.203125 29.300781 243.984375 C 30.171875 244.761719 31.023438 245.566406 31.855469 246.386719 C 32.683594 247.210938 33.496094 248.050781 34.289062 248.914062 C 35.078125 249.777344 35.847656 250.660156 36.59375 251.558594 C 37.339844 252.457031 38.066406 253.375 38.769531 254.3125 C 39.472656 255.246094 40.152344 256.199219 40.808594 257.167969 C 41.460938 258.136719 42.09375 259.121094 42.703125 260.117188 C 43.308594 261.117188 43.894531 262.132812 44.453125 263.160156 C 45.011719 264.1875 45.542969 265.230469 46.050781 266.28125 C 46.558594 267.335938 47.039062 268.402344 47.492188 269.480469 C 47.949219 270.558594 48.378906 271.644531 48.78125 272.746094 C 49.179688 273.84375 49.554688 274.949219 49.902344 276.066406 C 50.25 277.183594 50.570312 278.308594 50.863281 279.441406 C 51.15625 280.574219 51.421875 281.714844 51.660156 282.859375 C 51.898438 284.003906 52.105469 285.15625 52.285156 286.3125 C 52.46875 287.46875 52.621094 288.625 52.742188 289.789062 C 52.867188 290.953125 52.964844 292.117188 53.03125 293.285156 C 53.097656 294.453125 53.136719 295.625 53.144531 296.792969 C 53.15625 297.960938 53.136719 299.132812 53.089844 300.300781 C 53.042969 301.46875 52.964844 302.636719 52.859375 303.800781 C 52.757812 304.964844 52.625 306.128906 52.460938 307.289062 C 52.300781 308.445312 52.113281 309.601562 51.894531 310.75 C 51.675781 311.898438 51.429688 313.042969 51.15625 314.179688 C 50.882812 315.316406 50.582031 316.445312 50.253906 317.570312 C 49.921875 318.691406 49.566406 319.804688 49.183594 320.910156 C 48.800781 322.015625 48.390625 323.109375 47.953125 324.195312 C 47.515625 325.28125 47.054688 326.355469 46.5625 327.417969 C 46.074219 328.480469 45.558594 329.53125 45.019531 330.566406 C 44.476562 331.605469 43.910156 332.628906 43.320312 333.636719 C 42.730469 334.648438 42.113281 335.640625 41.472656 336.621094 C 40.835938 337.601562 40.171875 338.5625 39.484375 339.511719 C 38.796875 340.457031 38.089844 341.386719 37.355469 342.300781 C 36.625 343.210938 35.871094 344.105469 35.09375 344.980469 C 34.316406 345.855469 33.519531 346.710938 32.703125 347.546875 C 31.886719 348.386719 31.046875 349.199219 30.191406 349.996094 C 29.332031 350.792969 28.457031 351.566406 27.558594 352.316406 C 26.664062 353.070312 25.75 353.800781 24.820312 354.507812 C 23.886719 355.214844 22.941406 355.902344 21.976562 356.5625 C 21.011719 357.222656 20.03125 357.863281 19.035156 358.476562 C 18.039062 359.089844 17.027344 359.675781 16.003906 360.242188 C 14.976562 360.804688 13.941406 361.34375 12.890625 361.859375 C 11.835938 362.371094 10.773438 362.859375 9.699219 363.320312 C 0.777344 367.097656 -8.523438 368.976562 -18.210938 368.957031 Z M -18.210938 228.136719 C -56.3125 228.136719 -87.3125 259.132812 -87.3125 297.234375 C -87.3125 335.339844 -56.3125 366.335938 -18.210938 366.335938 C 19.890625 366.335938 50.890625 335.339844 50.890625 297.234375 C 50.890625 259.132812 19.890625 228.136719 -18.210938 228.136719 Z M -18.210938 228.136719 " fill-opacity="1" fill-rule="nonzero"/></g><g clip-path="url(#2c664d8101)"><path fill="#000000" d="M -18.210938 356.175781 C -19.410156 356.171875 -20.609375 356.136719 -21.808594 356.058594 C -23.007812 355.984375 -24.203125 355.875 -25.394531 355.726562 C -26.582031 355.578125 -27.769531 355.390625 -28.949219 355.171875 C -30.128906 354.949219 -31.300781 354.691406 -32.464844 354.402344 C -33.628906 354.109375 -34.785156 353.78125 -35.925781 353.417969 C -37.070312 353.050781 -38.203125 352.65625 -39.324219 352.222656 C -40.441406 351.789062 -41.546875 351.320312 -42.636719 350.820312 C -43.730469 350.320312 -44.804688 349.785156 -45.863281 349.21875 C -46.921875 348.652344 -47.960938 348.054688 -48.980469 347.425781 C -50.003906 346.796875 -51.003906 346.132812 -51.988281 345.441406 C -52.96875 344.75 -53.925781 344.03125 -54.863281 343.28125 C -55.800781 342.527344 -56.714844 341.75 -57.601562 340.945312 C -58.492188 340.136719 -59.355469 339.304688 -60.195312 338.445312 C -61.03125 337.585938 -61.84375 336.703125 -62.625 335.792969 C -63.410156 334.882812 -64.167969 333.953125 -64.894531 332.996094 C -65.621094 332.042969 -66.316406 331.066406 -66.984375 330.066406 C -67.652344 329.070312 -68.285156 328.050781 -68.890625 327.015625 C -69.496094 325.976562 -70.066406 324.921875 -70.609375 323.851562 C -71.148438 322.777344 -71.65625 321.691406 -72.128906 320.589844 C -72.601562 319.484375 -73.039062 318.367188 -73.445312 317.238281 C -73.851562 316.109375 -74.21875 314.96875 -74.554688 313.8125 C -74.890625 312.660156 -75.1875 311.5 -75.453125 310.328125 C -75.714844 309.15625 -75.945312 307.980469 -76.136719 306.792969 C -76.328125 305.609375 -76.480469 304.417969 -76.601562 303.226562 C -76.71875 302.03125 -76.800781 300.832031 -76.847656 299.632812 C -76.890625 298.433594 -76.898438 297.234375 -76.871094 296.035156 C -76.84375 294.835938 -76.777344 293.636719 -76.675781 292.441406 C -76.574219 291.246094 -76.4375 290.054688 -76.261719 288.867188 C -76.085938 287.679688 -75.875 286.496094 -75.628906 285.320312 C -75.382812 284.148438 -75.097656 282.980469 -74.78125 281.824219 C -74.460938 280.667969 -74.109375 279.519531 -73.71875 278.382812 C -73.328125 277.25 -72.90625 276.125 -72.449219 275.015625 C -71.992188 273.90625 -71.5 272.8125 -70.976562 271.734375 C -70.449219 270.652344 -69.890625 269.589844 -69.300781 268.546875 C -68.710938 267.5 -68.089844 266.472656 -67.4375 265.464844 C -66.785156 264.460938 -66.101562 263.472656 -65.390625 262.507812 C -64.675781 261.542969 -63.933594 260.597656 -63.164062 259.679688 C -62.390625 258.757812 -61.59375 257.863281 -60.765625 256.992188 C -59.941406 256.121094 -59.089844 255.277344 -58.210938 254.457031 C -57.332031 253.640625 -56.429688 252.847656 -55.503906 252.085938 C -54.578125 251.320312 -53.628906 250.585938 -52.660156 249.882812 C -51.6875 249.175781 -50.695312 248.5 -49.683594 247.855469 C -48.671875 247.210938 -47.640625 246.597656 -46.589844 246.015625 C -45.539062 245.4375 -44.472656 244.886719 -43.386719 244.371094 C -42.304688 243.855469 -41.207031 243.375 -40.09375 242.925781 C -38.980469 242.476562 -37.851562 242.0625 -36.714844 241.683594 C -35.574219 241.304688 -34.425781 240.957031 -33.265625 240.648438 C -32.105469 240.339844 -30.9375 240.066406 -29.761719 239.828125 C -28.585938 239.589844 -27.402344 239.390625 -26.210938 239.226562 C -25.023438 239.058594 -23.832031 238.933594 -22.632812 238.839844 C -21.4375 238.746094 -20.238281 238.691406 -19.039062 238.675781 C -17.839844 238.65625 -16.636719 238.675781 -15.4375 238.730469 C -14.238281 238.785156 -13.042969 238.875 -11.851562 239.003906 C -10.65625 239.132812 -9.46875 239.296875 -8.285156 239.5 C -7.101562 239.699219 -5.925781 239.9375 -4.757812 240.210938 C -3.585938 240.484375 -2.429688 240.792969 -1.277344 241.136719 C -0.128906 241.480469 1.007812 241.859375 2.136719 242.273438 C 3.261719 242.6875 4.375 243.136719 5.476562 243.621094 C 6.574219 244.101562 7.65625 244.617188 8.726562 245.167969 C 9.792969 245.714844 10.84375 246.296875 11.875 246.910156 C 12.90625 247.523438 13.917969 248.167969 14.910156 248.839844 C 15.902344 249.515625 16.875 250.222656 17.824219 250.957031 C 18.773438 251.691406 19.699219 252.453125 20.601562 253.246094 C 21.503906 254.035156 22.382812 254.855469 23.234375 255.699219 C 24.085938 256.546875 24.914062 257.414062 25.710938 258.3125 C 26.511719 259.207031 27.28125 260.125 28.023438 261.070312 C 28.765625 262.011719 29.480469 262.976562 30.164062 263.964844 C 30.847656 264.949219 31.5 265.957031 32.121094 266.984375 C 32.742188 268.011719 33.332031 269.054688 33.890625 270.117188 C 34.449219 271.183594 34.972656 272.261719 35.464844 273.355469 C 35.957031 274.449219 36.414062 275.558594 36.839844 276.683594 C 37.261719 277.804688 37.652344 278.941406 38.003906 280.089844 C 38.359375 281.234375 38.675781 282.390625 38.960938 283.558594 C 39.242188 284.726562 39.492188 285.898438 39.703125 287.082031 C 39.914062 288.261719 40.089844 289.449219 40.226562 290.640625 C 40.367188 291.832031 40.46875 293.03125 40.53125 294.226562 C 40.597656 295.425781 40.625 296.625 40.617188 297.828125 C 40.609375 299.027344 40.566406 300.226562 40.484375 301.421875 C 40.402344 302.621094 40.28125 303.816406 40.128906 305.003906 C 39.972656 306.195312 39.78125 307.378906 39.554688 308.558594 C 39.328125 309.738281 39.0625 310.90625 38.765625 312.070312 C 38.464844 313.234375 38.128906 314.386719 37.761719 315.527344 C 37.390625 316.667969 36.984375 317.796875 36.546875 318.914062 C 36.109375 320.03125 35.636719 321.136719 35.128906 322.222656 C 34.621094 323.3125 34.082031 324.382812 33.507812 325.4375 C 32.9375 326.492188 32.332031 327.53125 31.695312 328.546875 C 31.0625 329.566406 30.394531 330.5625 29.699219 331.542969 C 29 332.519531 28.273438 333.472656 27.519531 334.40625 C 26.761719 335.339844 25.980469 336.246094 25.167969 337.132812 C 24.355469 338.015625 23.519531 338.875 22.65625 339.710938 C 21.789062 340.542969 20.902344 341.347656 19.988281 342.128906 C 19.074219 342.90625 18.140625 343.65625 17.179688 344.378906 C 16.21875 345.097656 15.238281 345.789062 14.238281 346.453125 C 13.238281 347.113281 12.214844 347.742188 11.175781 348.34375 C 10.132812 348.941406 9.078125 349.507812 8.003906 350.042969 C 6.925781 350.574219 5.835938 351.078125 4.730469 351.542969 C -2.601562 354.644531 -10.25 356.191406 -18.210938 356.175781 Z M -18.210938 240.917969 C -49.265625 240.917969 -74.53125 266.183594 -74.53125 297.234375 C -74.53125 328.289062 -49.265625 353.554688 -18.210938 353.554688 C 12.84375 353.554688 38.109375 328.289062 38.109375 297.234375 C 38.109375 266.183594 12.84375 240.917969 -18.210938 240.917969 Z M -18.210938 240.917969 " fill-opacity="1" fill-rule="nonzero"/></g><g clip-path="url(#6a9ad4fe45)"><path fill="#000000" d="M -18.210938 343.125 C -19.085938 343.125 -19.964844 343.101562 -20.839844 343.050781 C -21.710938 343 -22.585938 342.925781 -23.457031 342.824219 C -24.328125 342.722656 -25.195312 342.601562 -26.058594 342.449219 C -26.921875 342.300781 -27.777344 342.125 -28.632812 341.925781 C -29.484375 341.726562 -30.332031 341.503906 -31.171875 341.257812 C -32.015625 341.011719 -32.847656 340.738281 -33.671875 340.441406 C -34.496094 340.148438 -35.3125 339.828125 -36.121094 339.488281 C -36.925781 339.144531 -37.722656 338.78125 -38.507812 338.394531 C -39.296875 338.007812 -40.070312 337.597656 -40.832031 337.164062 C -41.59375 336.734375 -42.34375 336.277344 -43.082031 335.804688 C -43.816406 335.328125 -44.539062 334.832031 -45.246094 334.316406 C -45.957031 333.800781 -46.648438 333.265625 -47.324219 332.710938 C -48.003906 332.152344 -48.664062 331.578125 -49.308594 330.984375 C -49.953125 330.390625 -50.582031 329.78125 -51.191406 329.148438 C -51.800781 328.519531 -52.390625 327.875 -52.960938 327.210938 C -53.535156 326.546875 -54.085938 325.867188 -54.621094 325.171875 C -55.15625 324.476562 -55.667969 323.765625 -56.160156 323.042969 C -56.652344 322.316406 -57.125 321.578125 -57.574219 320.828125 C -58.027344 320.078125 -58.457031 319.3125 -58.863281 318.535156 C -59.269531 317.761719 -59.652344 316.972656 -60.015625 316.175781 C -60.375 315.375 -60.714844 314.570312 -61.03125 313.75 C -61.347656 312.933594 -61.636719 312.109375 -61.90625 311.273438 C -62.171875 310.4375 -62.417969 309.597656 -62.636719 308.75 C -62.859375 307.902344 -63.054688 307.046875 -63.222656 306.1875 C -63.394531 305.328125 -63.542969 304.464844 -63.664062 303.597656 C -63.785156 302.730469 -63.882812 301.859375 -63.953125 300.984375 C -64.023438 300.113281 -64.070312 299.238281 -64.09375 298.359375 C -64.113281 297.484375 -64.109375 296.609375 -64.082031 295.734375 C -64.054688 294.859375 -64 293.984375 -63.921875 293.109375 C -63.84375 292.238281 -63.738281 291.367188 -63.609375 290.5 C -63.480469 289.632812 -63.328125 288.773438 -63.148438 287.914062 C -62.972656 287.054688 -62.769531 286.203125 -62.542969 285.355469 C -62.316406 284.511719 -62.066406 283.671875 -61.789062 282.839844 C -61.515625 282.007812 -61.21875 281.183594 -60.894531 280.367188 C -60.574219 279.554688 -60.226562 278.75 -59.859375 277.953125 C -59.492188 277.15625 -59.101562 276.375 -58.6875 275.601562 C -58.273438 274.828125 -57.839844 274.066406 -57.382812 273.320312 C -56.925781 272.570312 -56.449219 271.835938 -55.949219 271.117188 C -55.453125 270.398438 -54.933594 269.691406 -54.394531 269 C -53.855469 268.308594 -53.296875 267.632812 -52.71875 266.976562 C -52.140625 266.316406 -51.542969 265.675781 -50.929688 265.050781 C -50.316406 264.425781 -49.683594 263.820312 -49.035156 263.230469 C -48.386719 262.640625 -47.71875 262.070312 -47.039062 261.523438 C -46.355469 260.972656 -45.660156 260.441406 -44.945312 259.929688 C -44.234375 259.421875 -43.507812 258.929688 -42.769531 258.460938 C -42.027344 257.992188 -41.273438 257.546875 -40.507812 257.121094 C -39.742188 256.695312 -38.964844 256.289062 -38.175781 255.910156 C -37.386719 255.527344 -36.585938 255.171875 -35.777344 254.835938 C -34.96875 254.5 -34.148438 254.1875 -33.320312 253.898438 C -32.496094 253.609375 -31.660156 253.347656 -30.816406 253.105469 C -29.972656 252.863281 -29.125 252.648438 -28.269531 252.457031 C -27.414062 252.265625 -26.554688 252.097656 -25.691406 251.953125 C -24.828125 251.8125 -23.957031 251.691406 -23.085938 251.601562 C -22.214844 251.507812 -21.34375 251.4375 -20.46875 251.394531 C -19.59375 251.351562 -18.714844 251.335938 -17.839844 251.34375 C -16.964844 251.347656 -16.089844 251.382812 -15.214844 251.4375 C -14.339844 251.496094 -13.46875 251.578125 -12.597656 251.6875 C -11.726562 251.792969 -10.863281 251.925781 -10 252.082031 C -9.136719 252.238281 -8.28125 252.421875 -7.429688 252.625 C -6.578125 252.832031 -5.730469 253.0625 -4.894531 253.316406 C -4.054688 253.570312 -3.222656 253.847656 -2.402344 254.152344 C -1.578125 254.453125 -0.765625 254.777344 0.0390625 255.125 C 0.84375 255.476562 1.636719 255.847656 2.417969 256.242188 C 3.203125 256.632812 3.972656 257.050781 4.730469 257.488281 C 5.488281 257.925781 6.234375 258.386719 6.96875 258.867188 C 7.699219 259.347656 8.417969 259.847656 9.125 260.371094 C 9.828125 260.894531 10.515625 261.433594 11.1875 261.996094 C 11.859375 262.558594 12.515625 263.136719 13.15625 263.738281 C 13.796875 264.335938 14.417969 264.953125 15.023438 265.589844 C 15.625 266.222656 16.210938 266.875 16.78125 267.542969 C 17.347656 268.210938 17.894531 268.894531 18.421875 269.59375 C 18.949219 270.292969 19.457031 271.007812 19.945312 271.734375 C 20.429688 272.464844 20.894531 273.207031 21.339844 273.960938 C 21.785156 274.71875 22.207031 275.484375 22.605469 276.265625 C 23.007812 277.042969 23.386719 277.832031 23.742188 278.636719 C 24.097656 279.4375 24.425781 280.246094 24.738281 281.066406 C 25.046875 281.886719 25.328125 282.714844 25.589844 283.550781 C 25.851562 284.386719 26.089844 285.230469 26.300781 286.082031 C 26.515625 286.933594 26.703125 287.789062 26.867188 288.648438 C 27.03125 289.507812 27.171875 290.375 27.285156 291.242188 C 27.398438 292.109375 27.488281 292.984375 27.554688 293.855469 C 27.617188 294.730469 27.65625 295.605469 27.671875 296.480469 C 27.6875 297.359375 27.675781 298.234375 27.640625 299.109375 C 27.605469 299.984375 27.542969 300.859375 27.457031 301.730469 C 27.371094 302.601562 27.261719 303.472656 27.125 304.335938 C 26.988281 305.203125 26.828125 306.066406 26.644531 306.921875 C 26.457031 307.777344 26.25 308.628906 26.015625 309.472656 C 25.78125 310.316406 25.523438 311.15625 25.242188 311.984375 C 24.960938 312.8125 24.65625 313.636719 24.328125 314.449219 C 24 315.261719 23.644531 316.0625 23.273438 316.855469 C 22.898438 317.648438 22.5 318.425781 22.082031 319.195312 C 21.660156 319.964844 21.21875 320.722656 20.757812 321.46875 C 20.292969 322.210938 19.8125 322.941406 19.304688 323.65625 C 18.800781 324.375 18.277344 325.074219 17.730469 325.761719 C 17.1875 326.449219 16.625 327.117188 16.039062 327.773438 C 15.457031 328.425781 14.855469 329.0625 14.234375 329.683594 C 12.109375 331.820312 9.796875 333.730469 7.292969 335.40625 C 4.789062 337.085938 2.144531 338.5 -0.640625 339.65625 C -3.425781 340.808594 -6.296875 341.675781 -9.253906 342.261719 C -12.210938 342.84375 -15.195312 343.132812 -18.210938 343.125 Z M -18.210938 253.96875 C -42.070312 253.96875 -61.480469 273.378906 -61.480469 297.234375 C -61.480469 321.09375 -42.070312 340.503906 -18.210938 340.503906 C 5.648438 340.503906 25.058594 321.09375 25.058594 297.234375 C 25.058594 273.378906 5.648438 253.96875 -18.210938 253.96875 Z M -18.210938 253.96875 " fill-opacity="1" fill-rule="nonzero"/></g><g clip-path="url(#16839b6e6c)"><path fill="#000000" d="M -18.210938 331.546875 C -37.128906 331.546875 -52.523438 316.15625 -52.523438 297.234375 C -52.523438 278.316406 -37.132812 262.925781 -18.210938 262.925781 C 0.710938 262.925781 16.097656 278.316406 16.097656 297.234375 C 16.097656 316.15625 0.707031 331.546875 -18.210938 331.546875 Z M -18.210938 265.546875 C -35.6875 265.546875 -49.902344 279.761719 -49.902344 297.234375 C -49.902344 314.710938 -35.6875 328.925781 -18.210938 328.925781 C -0.734375 328.925781 13.480469 314.710938 13.480469 297.234375 C 13.480469 279.761719 -0.734375 265.546875 -18.210938 265.546875 Z M -18.210938 265.546875 " fill-opacity="1" fill-rule="nonzero"/><path fill="#000000" d="M -18.210938 331.546875 C -37.128906 331.546875 -52.523438 316.15625 -52.523438 297.234375 C -52.523438 278.316406 -37.132812 262.925781 -18.210938 262.925781 C 0.710938 262.925781 16.097656 278.316406 16.097656 297.234375 C 16.097656 316.15625 0.707031 331.546875 -18.210938 331.546875 Z M -18.210938 265.546875 C -35.6875 265.546875 -49.902344 279.761719 -49.902344 297.234375 C -49.902344 314.710938 -35.6875 328.925781 -18.210938 328.925781 C -0.734375 328.925781 13.480469 314.710938 13.480469 297.234375 C 13.480469 279.761719 -0.734375 265.546875 -18.210938 265.546875 Z M -18.210938 265.546875 " fill-opacity="1" fill-rule="nonzero"/></g><g clip-path="url(#df9e9bbea9)"><path fill="#000000" d="M -18.210938 321.878906 C -31.800781 321.878906 -42.855469 310.824219 -42.855469 297.234375 C -42.855469 283.648438 -31.800781 272.589844 -18.210938 272.589844 C -4.621094 272.589844 6.433594 283.648438 6.433594 297.234375 C 6.433594 310.824219 -4.621094 321.878906 -18.210938 321.878906 Z M -18.210938 275.210938 C -30.355469 275.210938 -40.238281 285.089844 -40.238281 297.234375 C -40.238281 309.382812 -30.355469 319.261719 -18.210938 319.261719 C -6.066406 319.261719 3.8125 309.382812 3.8125 297.234375 C 3.8125 285.089844 -6.066406 275.210938 -18.210938 275.210938 Z M -18.210938 275.210938 " fill-opacity="1" fill-rule="nonzero"/></g><g clip-path="url(#b235484d6a)"><g clip-path="url(#f5e4287143)"><g clip-path="url(#db68097408)"><path fill="#545454" d="M 560.871094 123.441406 L 544.164062 106.738281 L 566.984375 100.621094 Z M 544.8125 106.910156 L 560.695312 122.792969 L 566.507812 101.097656 Z M 544.8125 106.910156 " fill-opacity="1" fill-rule="nonzero"/></g></g></g><g clip-path="url(#ef511578d1)"><g clip-path="url(#b74f53195e)"><g clip-path="url(#05ac0183e3)"><path fill="#545454" d="M 560.171875 121.304688 L 546.300781 107.433594 L 565.246094 102.359375 Z M 546.949219 107.609375 L 559.996094 120.660156 L 564.769531 102.835938 Z M 546.949219 107.609375 " fill-opacity="1" fill-rule="nonzero"/></g></g></g><g clip-path="url(#0e30963fa0)"><g clip-path="url(#3f4ae29281)"><g clip-path="url(#7a7f994d38)"><path fill="#737373" d="M 459.351562 415.636719 L 460.726562 439.21875 L 439.613281 428.617188 Z M 460.359375 438.65625 L 459.050781 416.234375 L 440.285156 428.578125 Z M 460.359375 438.65625 " fill-opacity="1" fill-rule="nonzero"/></g></g></g><g clip-path="url(#a4d30ad6a2)"><g clip-path="url(#4a73916012)"><g clip-path="url(#4e160b3b2d)"><path fill="#737373" d="M 458.453125 417.695312 L 459.597656 437.277344 L 442.066406 428.476562 Z M 459.226562 436.71875 L 458.152344 418.292969 L 442.738281 428.4375 Z M 459.226562 436.71875 " fill-opacity="1" fill-rule="nonzero"/></g></g></g></svg>